<svg xmlns="http://www.w3.org/2000/svg" xmlns:xlink="http://www.w3.org/1999/xlink" width="500" zoomAndPan="magnify" viewBox="0 0 375 374.999991" height="500" preserveAspectRatio="xMidYMid meet" version="1.0"><defs><g/><clipPath id="fcf2c811df"><path d="M 235.617188 138.546875 L 285.933594 138.546875 L 285.933594 188.863281 L 235.617188 188.863281 Z M 235.617188 138.546875 " clip-rule="nonzero"/></clipPath><clipPath id="8b5e665f1f"><path d="M 260.773438 138.546875 C 246.882812 138.546875 235.617188 149.8125 235.617188 163.707031 C 235.617188 177.597656 246.882812 188.863281 260.773438 188.863281 C 274.667969 188.863281 285.933594 177.597656 285.933594 163.707031 C 285.933594 149.8125 274.667969 138.546875 260.773438 138.546875 Z M 260.773438 138.546875 " clip-rule="nonzero"/></clipPath><clipPath id="8fee7ccec4"><path d="M 238.25 162.238281 L 309.078125 162.238281 L 309.078125 233.066406 L 238.25 233.066406 Z M 238.25 162.238281 " clip-rule="nonzero"/></clipPath><clipPath id="f8fd972023"><path d="M 273.664062 162.238281 C 254.105469 162.238281 238.25 178.09375 238.25 197.652344 C 238.25 217.210938 254.105469 233.066406 273.664062 233.066406 C 293.222656 233.066406 309.078125 217.210938 309.078125 197.652344 C 309.078125 178.09375 293.222656 162.238281 273.664062 162.238281 Z M 273.664062 162.238281 " clip-rule="nonzero"/></clipPath><clipPath id="042dd73570"><path d="M 242.210938 145.140625 L 279.339844 145.140625 L 279.339844 182.269531 L 242.210938 182.269531 Z M 242.210938 145.140625 " clip-rule="nonzero"/></clipPath><clipPath id="4e12e72237"><path d="M 260.773438 145.140625 C 250.523438 145.140625 242.210938 153.453125 242.210938 163.707031 C 242.210938 173.957031 250.523438 182.269531 260.773438 182.269531 C 271.027344 182.269531 279.339844 173.957031 279.339844 163.707031 C 279.339844 153.453125 271.027344 145.140625 260.773438 145.140625 Z M 260.773438 145.140625 " clip-rule="nonzero"/></clipPath><clipPath id="3362ed8d35"><path d="M 244.992188 168.980469 L 302.335938 168.980469 L 302.335938 226.324219 L 244.992188 226.324219 Z M 244.992188 168.980469 " clip-rule="nonzero"/></clipPath><clipPath id="f47b82c511"><path d="M 273.664062 168.980469 C 257.828125 168.980469 244.992188 181.816406 244.992188 197.652344 C 244.992188 213.488281 257.828125 226.324219 273.664062 226.324219 C 289.5 226.324219 302.335938 213.488281 302.335938 197.652344 C 302.335938 181.816406 289.5 168.980469 273.664062 168.980469 Z M 273.664062 168.980469 " clip-rule="nonzero"/></clipPath><clipPath id="1120a93104"><path d="M 87.960938 129.15625 L 138.273438 129.15625 L 138.273438 179.472656 L 87.960938 179.472656 Z M 87.960938 129.15625 " clip-rule="nonzero"/></clipPath><clipPath id="8f447f9969"><path d="M 113.117188 129.15625 C 99.222656 129.15625 87.960938 140.421875 87.960938 154.316406 C 87.960938 168.207031 99.222656 179.472656 113.117188 179.472656 C 127.011719 179.472656 138.273438 168.207031 138.273438 154.316406 C 138.273438 140.421875 127.011719 129.15625 113.117188 129.15625 Z M 113.117188 129.15625 " clip-rule="nonzero"/></clipPath><clipPath id="7ecffe9373"><path d="M 67.449219 154.316406 L 138.273438 154.316406 L 138.273438 225.140625 L 67.449219 225.140625 Z M 67.449219 154.316406 " clip-rule="nonzero"/></clipPath><clipPath id="76e4ce23cc"><path d="M 102.863281 154.316406 C 83.304688 154.316406 67.449219 170.167969 67.449219 189.726562 C 67.449219 209.285156 83.304688 225.140625 102.863281 225.140625 C 122.421875 225.140625 138.273438 209.285156 138.273438 189.726562 C 138.273438 170.167969 122.421875 154.316406 102.863281 154.316406 Z M 102.863281 154.316406 " clip-rule="nonzero"/></clipPath><clipPath id="2fbeb2a034"><path d="M 94.554688 135.75 L 131.683594 135.75 L 131.683594 172.878906 L 94.554688 172.878906 Z M 94.554688 135.75 " clip-rule="nonzero"/></clipPath><clipPath id="fb7e4d52d4"><path d="M 113.117188 135.75 C 102.863281 135.75 94.554688 144.0625 94.554688 154.316406 C 94.554688 164.566406 102.863281 172.878906 113.117188 172.878906 C 123.371094 172.878906 131.683594 164.566406 131.683594 154.316406 C 131.683594 144.0625 123.371094 135.75 113.117188 135.75 Z M 113.117188 135.75 " clip-rule="nonzero"/></clipPath><clipPath id="6fbbad4f15"><path d="M 74.191406 161.054688 L 131.535156 161.054688 L 131.535156 218.398438 L 74.191406 218.398438 Z M 74.191406 161.054688 " clip-rule="nonzero"/></clipPath><clipPath id="dd22b48aa8"><path d="M 102.863281 161.054688 C 87.027344 161.054688 74.191406 173.890625 74.191406 189.726562 C 74.191406 205.5625 87.027344 218.398438 102.863281 218.398438 C 118.699219 218.398438 131.535156 205.5625 131.535156 189.726562 C 131.535156 173.890625 118.699219 161.054688 102.863281 161.054688 Z M 102.863281 161.054688 " clip-rule="nonzero"/></clipPath><clipPath id="0ea2f31fe6"><path d="M 101 87.453125 L 268 87.453125 L 268 265.019531 L 101 265.019531 Z M 101 87.453125 " clip-rule="nonzero"/></clipPath><clipPath id="84978991b0"><path d="M 148.726562 265.019531 L 220.140625 265.019531 C 230.992188 265.019531 240.289062 257.246094 242.207031 246.566406 L 267.515625 105.90625 C 268.335938 101.335938 267.089844 96.636719 264.113281 93.074219 C 261.132812 89.511719 256.726562 87.453125 252.085938 87.453125 L 116.78125 87.453125 C 112.140625 87.453125 107.734375 89.511719 104.753906 93.074219 C 101.777344 96.636719 100.53125 101.335938 101.351562 105.90625 L 126.65625 246.566406 C 128.578125 257.246094 137.875 265.019531 148.726562 265.019531 Z M 148.726562 265.019531 " clip-rule="nonzero"/></clipPath><clipPath id="a611a25a48"><path d="M 101 87.457031 L 268 87.457031 L 268 265.144531 L 101 265.144531 Z M 101 87.457031 " clip-rule="nonzero"/></clipPath><clipPath id="39c7ab1ed3"><path d="M 148.726562 265.011719 L 220.132812 265.011719 C 230.984375 265.011719 240.28125 257.242188 242.203125 246.558594 L 267.503906 105.910156 C 268.328125 101.339844 267.082031 96.640625 264.101562 93.078125 C 261.125 89.515625 256.71875 87.457031 252.078125 87.457031 L 116.78125 87.457031 C 112.136719 87.457031 107.734375 89.515625 104.753906 93.078125 C 101.777344 96.640625 100.53125 101.339844 101.351562 105.910156 L 126.65625 246.558594 C 128.578125 257.242188 137.871094 265.011719 148.726562 265.011719 Z M 148.726562 265.011719 " clip-rule="nonzero"/></clipPath><clipPath id="0baae2ea2b"><path d="M 85.386719 225.78125 L 283.480469 225.78125 L 283.480469 287.546875 L 85.386719 287.546875 Z M 85.386719 225.78125 " clip-rule="nonzero"/></clipPath><clipPath id="37a4247194"><path d="M 124.554688 287.546875 L 244.308594 287.546875 C 251.222656 287.546875 257.554688 283.691406 260.730469 277.554688 L 282.335938 235.773438 C 283.433594 233.652344 283.347656 231.109375 282.105469 229.066406 C 280.863281 227.027344 278.644531 225.78125 276.253906 225.78125 L 92.609375 225.78125 C 90.222656 225.78125 88.003906 227.027344 86.761719 229.066406 C 85.519531 231.109375 85.429688 233.652344 86.53125 235.773438 L 108.136719 277.554688 C 111.3125 283.691406 117.644531 287.546875 124.554688 287.546875 Z M 124.554688 287.546875 " clip-rule="nonzero"/></clipPath><clipPath id="eeb4576058"><path d="M 133.207031 104.34375 L 236.027344 104.34375 L 236.027344 207.160156 L 133.207031 207.160156 Z M 133.207031 104.34375 " clip-rule="nonzero"/></clipPath><clipPath id="9d46ee4242"><path d="M 184.617188 104.34375 C 156.226562 104.34375 133.207031 127.359375 133.207031 155.75 C 133.207031 184.144531 156.226562 207.160156 184.617188 207.160156 C 213.007812 207.160156 236.027344 184.144531 236.027344 155.75 C 236.027344 127.359375 213.007812 104.34375 184.617188 104.34375 Z M 184.617188 104.34375 " clip-rule="nonzero"/></clipPath><clipPath id="628e0d6756"><path d="M 133.207031 104.34375 L 235.957031 104.34375 L 235.957031 207.09375 L 133.207031 207.09375 Z M 133.207031 104.34375 " clip-rule="nonzero"/></clipPath><clipPath id="70378d4c79"><path d="M 184.613281 104.34375 C 156.222656 104.34375 133.207031 127.359375 133.207031 155.746094 C 133.207031 184.136719 156.222656 207.152344 184.613281 207.152344 C 213.003906 207.152344 236.015625 184.136719 236.015625 155.746094 C 236.015625 127.359375 213.003906 104.34375 184.613281 104.34375 Z M 184.613281 104.34375 " clip-rule="nonzero"/></clipPath><clipPath id="8fe8b876cc"><path d="M 148.667969 119.984375 L 219.917969 119.984375 L 219.917969 191.234375 L 148.667969 191.234375 Z M 148.667969 119.984375 " clip-rule="nonzero"/></clipPath><clipPath id="bb96002d4d"><path d="M 184.433594 119.984375 C 164.679688 119.984375 148.667969 136 148.667969 155.75 C 148.667969 175.503906 164.679688 191.515625 184.433594 191.515625 C 204.183594 191.515625 220.199219 175.503906 220.199219 155.75 C 220.199219 136 204.183594 119.984375 184.433594 119.984375 Z M 184.433594 119.984375 " clip-rule="nonzero"/></clipPath><clipPath id="5a1036a3e8"><path d="M 156.554688 137.703125 L 212.054688 137.703125 L 212.054688 184.203125 L 156.554688 184.203125 Z M 156.554688 137.703125 " clip-rule="nonzero"/></clipPath><clipPath id="cdc435423d"><path d="M 229.421875 102.324219 L 247.082031 102.324219 L 247.082031 119.984375 L 229.421875 119.984375 Z M 229.421875 102.324219 " clip-rule="nonzero"/></clipPath><clipPath id="de08be604b"><path d="M 238.25 102.324219 C 233.375 102.324219 229.421875 106.277344 229.421875 111.15625 C 229.421875 116.03125 233.375 119.984375 238.25 119.984375 C 243.128906 119.984375 247.082031 116.03125 247.082031 111.15625 C 247.082031 106.277344 243.128906 102.324219 238.25 102.324219 Z M 238.25 102.324219 " clip-rule="nonzero"/></clipPath><clipPath id="4b259fe242"><path d="M 271 173 L 292 173 L 292 193 L 271 193 Z M 271 173 " clip-rule="nonzero"/></clipPath><clipPath id="030a84231d"><path d="M 324.792969 115.359375 L 356.027344 156.621094 L 278.285156 215.464844 L 247.054688 174.203125 Z M 324.792969 115.359375 " clip-rule="nonzero"/></clipPath><clipPath id="d02007f1c5"><path d="M 324.792969 115.359375 L 356.027344 156.621094 L 278.285156 215.464844 L 247.054688 174.203125 Z M 324.792969 115.359375 " clip-rule="nonzero"/></clipPath><clipPath id="1277b4705c"><path d="M 324.792969 115.359375 L 356.027344 156.621094 L 278.285156 215.464844 L 247.054688 174.203125 Z M 324.792969 115.359375 " clip-rule="nonzero"/></clipPath><clipPath id="4468ea1b26"><path d="M 293 142 L 313 142 L 313 162 L 293 162 Z M 293 142 " clip-rule="nonzero"/></clipPath><clipPath id="97a85378a6"><path d="M 324.792969 115.359375 L 356.027344 156.621094 L 278.285156 215.464844 L 247.054688 174.203125 Z M 324.792969 115.359375 " clip-rule="nonzero"/></clipPath><clipPath id="9f942438be"><path d="M 324.792969 115.359375 L 356.027344 156.621094 L 278.285156 215.464844 L 247.054688 174.203125 Z M 324.792969 115.359375 " clip-rule="nonzero"/></clipPath><clipPath id="befbc36dc2"><path d="M 324.792969 115.359375 L 356.027344 156.621094 L 278.285156 215.464844 L 247.054688 174.203125 Z M 324.792969 115.359375 " clip-rule="nonzero"/></clipPath><clipPath id="a8a390a79f"><path d="M 296 166 L 320 166 L 320 190 L 296 190 Z M 296 166 " clip-rule="nonzero"/></clipPath><clipPath id="40093b6465"><path d="M 324.792969 115.359375 L 356.027344 156.621094 L 278.285156 215.464844 L 247.054688 174.203125 Z M 324.792969 115.359375 " clip-rule="nonzero"/></clipPath><clipPath id="f1a53c2bc2"><path d="M 324.792969 115.359375 L 356.027344 156.621094 L 278.285156 215.464844 L 247.054688 174.203125 Z M 324.792969 115.359375 " clip-rule="nonzero"/></clipPath><clipPath id="98a276d659"><path d="M 324.792969 115.359375 L 356.027344 156.621094 L 278.285156 215.464844 L 247.054688 174.203125 Z M 324.792969 115.359375 " clip-rule="nonzero"/></clipPath><clipPath id="b18865893d"><path d="M 277 149 L 284 149 L 284 156 L 277 156 Z M 277 149 " clip-rule="nonzero"/></clipPath><clipPath id="0001ff5d3b"><path d="M 324.792969 115.359375 L 356.027344 156.621094 L 278.285156 215.464844 L 247.054688 174.203125 Z M 324.792969 115.359375 " clip-rule="nonzero"/></clipPath><clipPath id="920c408732"><path d="M 324.792969 115.359375 L 356.027344 156.621094 L 278.285156 215.464844 L 247.054688 174.203125 Z M 324.792969 115.359375 " clip-rule="nonzero"/></clipPath><clipPath id="d7e1c5adc2"><path d="M 324.792969 115.359375 L 356.027344 156.621094 L 278.285156 215.464844 L 247.054688 174.203125 Z M 324.792969 115.359375 " clip-rule="nonzero"/></clipPath><clipPath id="8ef09a382a"><path d="M 272 160 L 283 160 L 283 171 L 272 171 Z M 272 160 " clip-rule="nonzero"/></clipPath><clipPath id="d3bbbad537"><path d="M 324.792969 115.359375 L 356.027344 156.621094 L 278.285156 215.464844 L 247.054688 174.203125 Z M 324.792969 115.359375 " clip-rule="nonzero"/></clipPath><clipPath id="7e94eb1142"><path d="M 324.792969 115.359375 L 356.027344 156.621094 L 278.285156 215.464844 L 247.054688 174.203125 Z M 324.792969 115.359375 " clip-rule="nonzero"/></clipPath><clipPath id="4790878977"><path d="M 324.792969 115.359375 L 356.027344 156.621094 L 278.285156 215.464844 L 247.054688 174.203125 Z M 324.792969 115.359375 " clip-rule="nonzero"/></clipPath><clipPath id="cc3bf411f9"><path d="M 334 137 L 338 137 L 338 141 L 334 141 Z M 334 137 " clip-rule="nonzero"/></clipPath><clipPath id="01d8599cf6"><path d="M 324.792969 115.359375 L 356.027344 156.621094 L 278.285156 215.464844 L 247.054688 174.203125 Z M 324.792969 115.359375 " clip-rule="nonzero"/></clipPath><clipPath id="8949e67d2d"><path d="M 324.792969 115.359375 L 356.027344 156.621094 L 278.285156 215.464844 L 247.054688 174.203125 Z M 324.792969 115.359375 " clip-rule="nonzero"/></clipPath><clipPath id="90bb578a57"><path d="M 324.792969 115.359375 L 356.027344 156.621094 L 278.285156 215.464844 L 247.054688 174.203125 Z M 324.792969 115.359375 " clip-rule="nonzero"/></clipPath><clipPath id="fd244e02e6"><path d="M 314 139 L 318 139 L 318 143 L 314 143 Z M 314 139 " clip-rule="nonzero"/></clipPath><clipPath id="092933c1e4"><path d="M 324.792969 115.359375 L 356.027344 156.621094 L 278.285156 215.464844 L 247.054688 174.203125 Z M 324.792969 115.359375 " clip-rule="nonzero"/></clipPath><clipPath id="7c42eb9198"><path d="M 324.792969 115.359375 L 356.027344 156.621094 L 278.285156 215.464844 L 247.054688 174.203125 Z M 324.792969 115.359375 " clip-rule="nonzero"/></clipPath><clipPath id="c243f63b7a"><path d="M 324.792969 115.359375 L 356.027344 156.621094 L 278.285156 215.464844 L 247.054688 174.203125 Z M 324.792969 115.359375 " clip-rule="nonzero"/></clipPath><clipPath id="1f80bc74b7"><path d="M 273 155 L 276 155 L 276 159 L 273 159 Z M 273 155 " clip-rule="nonzero"/></clipPath><clipPath id="1da2bb4cc4"><path d="M 324.792969 115.359375 L 356.027344 156.621094 L 278.285156 215.464844 L 247.054688 174.203125 Z M 324.792969 115.359375 " clip-rule="nonzero"/></clipPath><clipPath id="0fb9d934a5"><path d="M 324.792969 115.359375 L 356.027344 156.621094 L 278.285156 215.464844 L 247.054688 174.203125 Z M 324.792969 115.359375 " clip-rule="nonzero"/></clipPath><clipPath id="1eb41f07d5"><path d="M 324.792969 115.359375 L 356.027344 156.621094 L 278.285156 215.464844 L 247.054688 174.203125 Z M 324.792969 115.359375 " clip-rule="nonzero"/></clipPath><clipPath id="964132b771"><path d="M 268 171 L 271 171 L 271 175 L 268 175 Z M 268 171 " clip-rule="nonzero"/></clipPath><clipPath id="270e9ff748"><path d="M 324.792969 115.359375 L 356.027344 156.621094 L 278.285156 215.464844 L 247.054688 174.203125 Z M 324.792969 115.359375 " clip-rule="nonzero"/></clipPath><clipPath id="da07ac5e9c"><path d="M 324.792969 115.359375 L 356.027344 156.621094 L 278.285156 215.464844 L 247.054688 174.203125 Z M 324.792969 115.359375 " clip-rule="nonzero"/></clipPath><clipPath id="1b05708324"><path d="M 324.792969 115.359375 L 356.027344 156.621094 L 278.285156 215.464844 L 247.054688 174.203125 Z M 324.792969 115.359375 " clip-rule="nonzero"/></clipPath><clipPath id="4232662433"><path d="M 257 186 L 261 186 L 261 190 L 257 190 Z M 257 186 " clip-rule="nonzero"/></clipPath><clipPath id="b16b73166b"><path d="M 324.792969 115.359375 L 356.027344 156.621094 L 278.285156 215.464844 L 247.054688 174.203125 Z M 324.792969 115.359375 " clip-rule="nonzero"/></clipPath><clipPath id="fdcbc2ee4b"><path d="M 324.792969 115.359375 L 356.027344 156.621094 L 278.285156 215.464844 L 247.054688 174.203125 Z M 324.792969 115.359375 " clip-rule="nonzero"/></clipPath><clipPath id="d3f5286329"><path d="M 324.792969 115.359375 L 356.027344 156.621094 L 278.285156 215.464844 L 247.054688 174.203125 Z M 324.792969 115.359375 " clip-rule="nonzero"/></clipPath><clipPath id="436d3f2403"><path d="M 333 143 L 337 143 L 337 146 L 333 146 Z M 333 143 " clip-rule="nonzero"/></clipPath><clipPath id="9301b90720"><path d="M 324.792969 115.359375 L 356.027344 156.621094 L 278.285156 215.464844 L 247.054688 174.203125 Z M 324.792969 115.359375 " clip-rule="nonzero"/></clipPath><clipPath id="858c750a10"><path d="M 324.792969 115.359375 L 356.027344 156.621094 L 278.285156 215.464844 L 247.054688 174.203125 Z M 324.792969 115.359375 " clip-rule="nonzero"/></clipPath><clipPath id="10cc60f51f"><path d="M 324.792969 115.359375 L 356.027344 156.621094 L 278.285156 215.464844 L 247.054688 174.203125 Z M 324.792969 115.359375 " clip-rule="nonzero"/></clipPath><clipPath id="ece9e5e743"><path d="M 313 159 L 317 159 L 317 163 L 313 163 Z M 313 159 " clip-rule="nonzero"/></clipPath><clipPath id="12ba03fb75"><path d="M 324.792969 115.359375 L 356.027344 156.621094 L 278.285156 215.464844 L 247.054688 174.203125 Z M 324.792969 115.359375 " clip-rule="nonzero"/></clipPath><clipPath id="cfc5bbc8e9"><path d="M 324.792969 115.359375 L 356.027344 156.621094 L 278.285156 215.464844 L 247.054688 174.203125 Z M 324.792969 115.359375 " clip-rule="nonzero"/></clipPath><clipPath id="ce6fd76b67"><path d="M 324.792969 115.359375 L 356.027344 156.621094 L 278.285156 215.464844 L 247.054688 174.203125 Z M 324.792969 115.359375 " clip-rule="nonzero"/></clipPath><clipPath id="3f81bd8fb5"><path d="M 337 133 L 340 133 L 340 136 L 337 136 Z M 337 133 " clip-rule="nonzero"/></clipPath><clipPath id="d90e2a8053"><path d="M 324.792969 115.359375 L 356.027344 156.621094 L 278.285156 215.464844 L 247.054688 174.203125 Z M 324.792969 115.359375 " clip-rule="nonzero"/></clipPath><clipPath id="42175b0933"><path d="M 324.792969 115.359375 L 356.027344 156.621094 L 278.285156 215.464844 L 247.054688 174.203125 Z M 324.792969 115.359375 " clip-rule="nonzero"/></clipPath><clipPath id="373b3af20e"><path d="M 324.792969 115.359375 L 356.027344 156.621094 L 278.285156 215.464844 L 247.054688 174.203125 Z M 324.792969 115.359375 " clip-rule="nonzero"/></clipPath><clipPath id="f7167c46a6"><path d="M 292 187 L 296 187 L 296 191 L 292 191 Z M 292 187 " clip-rule="nonzero"/></clipPath><clipPath id="952e46010c"><path d="M 324.792969 115.359375 L 356.027344 156.621094 L 278.285156 215.464844 L 247.054688 174.203125 Z M 324.792969 115.359375 " clip-rule="nonzero"/></clipPath><clipPath id="1c100d5d55"><path d="M 324.792969 115.359375 L 356.027344 156.621094 L 278.285156 215.464844 L 247.054688 174.203125 Z M 324.792969 115.359375 " clip-rule="nonzero"/></clipPath><clipPath id="c8a5c72fba"><path d="M 324.792969 115.359375 L 356.027344 156.621094 L 278.285156 215.464844 L 247.054688 174.203125 Z M 324.792969 115.359375 " clip-rule="nonzero"/></clipPath><clipPath id="0b5aff95df"><path d="M 268 182 L 272 182 L 272 186 L 268 186 Z M 268 182 " clip-rule="nonzero"/></clipPath><clipPath id="bb42c1fb0f"><path d="M 324.792969 115.359375 L 356.027344 156.621094 L 278.285156 215.464844 L 247.054688 174.203125 Z M 324.792969 115.359375 " clip-rule="nonzero"/></clipPath><clipPath id="374a887657"><path d="M 324.792969 115.359375 L 356.027344 156.621094 L 278.285156 215.464844 L 247.054688 174.203125 Z M 324.792969 115.359375 " clip-rule="nonzero"/></clipPath><clipPath id="c9fe094eb8"><path d="M 324.792969 115.359375 L 356.027344 156.621094 L 278.285156 215.464844 L 247.054688 174.203125 Z M 324.792969 115.359375 " clip-rule="nonzero"/></clipPath><clipPath id="f90122a50f"><path d="M 317 148 L 324 148 L 324 155 L 317 155 Z M 317 148 " clip-rule="nonzero"/></clipPath><clipPath id="2c8cbf3753"><path d="M 324.792969 115.359375 L 356.027344 156.621094 L 278.285156 215.464844 L 247.054688 174.203125 Z M 324.792969 115.359375 " clip-rule="nonzero"/></clipPath><clipPath id="4c6f82b984"><path d="M 324.792969 115.359375 L 356.027344 156.621094 L 278.285156 215.464844 L 247.054688 174.203125 Z M 324.792969 115.359375 " clip-rule="nonzero"/></clipPath><clipPath id="6f9257c54f"><path d="M 324.792969 115.359375 L 356.027344 156.621094 L 278.285156 215.464844 L 247.054688 174.203125 Z M 324.792969 115.359375 " clip-rule="nonzero"/></clipPath><clipPath id="2851016a49"><path d="M 324 137 L 331 137 L 331 143 L 324 143 Z M 324 137 " clip-rule="nonzero"/></clipPath><clipPath id="0295e1729d"><path d="M 324.792969 115.359375 L 356.027344 156.621094 L 278.285156 215.464844 L 247.054688 174.203125 Z M 324.792969 115.359375 " clip-rule="nonzero"/></clipPath><clipPath id="de6cb087d9"><path d="M 324.792969 115.359375 L 356.027344 156.621094 L 278.285156 215.464844 L 247.054688 174.203125 Z M 324.792969 115.359375 " clip-rule="nonzero"/></clipPath><clipPath id="782578441a"><path d="M 324.792969 115.359375 L 356.027344 156.621094 L 278.285156 215.464844 L 247.054688 174.203125 Z M 324.792969 115.359375 " clip-rule="nonzero"/></clipPath><clipPath id="29fbbf78bb"><path d="M 327 146 L 334 146 L 334 153 L 327 153 Z M 327 146 " clip-rule="nonzero"/></clipPath><clipPath id="c0538fd5b9"><path d="M 324.792969 115.359375 L 356.027344 156.621094 L 278.285156 215.464844 L 247.054688 174.203125 Z M 324.792969 115.359375 " clip-rule="nonzero"/></clipPath><clipPath id="cfa54b6b3f"><path d="M 324.792969 115.359375 L 356.027344 156.621094 L 278.285156 215.464844 L 247.054688 174.203125 Z M 324.792969 115.359375 " clip-rule="nonzero"/></clipPath><clipPath id="0adcade1b5"><path d="M 324.792969 115.359375 L 356.027344 156.621094 L 278.285156 215.464844 L 247.054688 174.203125 Z M 324.792969 115.359375 " clip-rule="nonzero"/></clipPath><clipPath id="126cc31ad2"><path d="M 287 161 L 294 161 L 294 168 L 287 168 Z M 287 161 " clip-rule="nonzero"/></clipPath><clipPath id="c58d09482f"><path d="M 324.792969 115.359375 L 356.027344 156.621094 L 278.285156 215.464844 L 247.054688 174.203125 Z M 324.792969 115.359375 " clip-rule="nonzero"/></clipPath><clipPath id="067e47572e"><path d="M 324.792969 115.359375 L 356.027344 156.621094 L 278.285156 215.464844 L 247.054688 174.203125 Z M 324.792969 115.359375 " clip-rule="nonzero"/></clipPath><clipPath id="3c4f4d7c20"><path d="M 324.792969 115.359375 L 356.027344 156.621094 L 278.285156 215.464844 L 247.054688 174.203125 Z M 324.792969 115.359375 " clip-rule="nonzero"/></clipPath><clipPath id="2688984d0d"><path d="M 91 166 L 112 166 L 112 187 L 91 187 Z M 91 166 " clip-rule="nonzero"/></clipPath><clipPath id="e53b4d5663"><path d="M 23.128906 158.996094 L 51.300781 115.585938 L 133.089844 168.660156 L 104.917969 212.070312 Z M 23.128906 158.996094 " clip-rule="nonzero"/></clipPath><clipPath id="ee06763e5e"><path d="M 23.128906 158.996094 L 51.300781 115.585938 L 133.089844 168.660156 L 104.917969 212.070312 Z M 23.128906 158.996094 " clip-rule="nonzero"/></clipPath><clipPath id="3bc1671895"><path d="M 23.128906 158.996094 L 51.300781 115.585938 L 133.089844 168.660156 L 104.917969 212.070312 Z M 23.128906 158.996094 " clip-rule="nonzero"/></clipPath><clipPath id="30a691f803"><path d="M 55 157 L 75 157 L 75 177 L 55 177 Z M 55 157 " clip-rule="nonzero"/></clipPath><clipPath id="87f872e75f"><path d="M 23.128906 158.996094 L 51.300781 115.585938 L 133.089844 168.660156 L 104.917969 212.070312 Z M 23.128906 158.996094 " clip-rule="nonzero"/></clipPath><clipPath id="7c64a33065"><path d="M 23.128906 158.996094 L 51.300781 115.585938 L 133.089844 168.660156 L 104.917969 212.070312 Z M 23.128906 158.996094 " clip-rule="nonzero"/></clipPath><clipPath id="f2a921bb94"><path d="M 23.128906 158.996094 L 51.300781 115.585938 L 133.089844 168.660156 L 104.917969 212.070312 Z M 23.128906 158.996094 " clip-rule="nonzero"/></clipPath><clipPath id="fb36011bc7"><path d="M 75 141 L 100 141 L 100 166 L 75 166 Z M 75 141 " clip-rule="nonzero"/></clipPath><clipPath id="5832ac9f1d"><path d="M 23.128906 158.996094 L 51.300781 115.585938 L 133.089844 168.660156 L 104.917969 212.070312 Z M 23.128906 158.996094 " clip-rule="nonzero"/></clipPath><clipPath id="ebc5128c21"><path d="M 23.128906 158.996094 L 51.300781 115.585938 L 133.089844 168.660156 L 104.917969 212.070312 Z M 23.128906 158.996094 " clip-rule="nonzero"/></clipPath><clipPath id="8151291b2a"><path d="M 23.128906 158.996094 L 51.300781 115.585938 L 133.089844 168.660156 L 104.917969 212.070312 Z M 23.128906 158.996094 " clip-rule="nonzero"/></clipPath><clipPath id="8d874fe8a0"><path d="M 69 184 L 76 184 L 76 191 L 69 191 Z M 69 184 " clip-rule="nonzero"/></clipPath><clipPath id="6ad449f91b"><path d="M 23.128906 158.996094 L 51.300781 115.585938 L 133.089844 168.660156 L 104.917969 212.070312 Z M 23.128906 158.996094 " clip-rule="nonzero"/></clipPath><clipPath id="dc9c93bfff"><path d="M 23.128906 158.996094 L 51.300781 115.585938 L 133.089844 168.660156 L 104.917969 212.070312 Z M 23.128906 158.996094 " clip-rule="nonzero"/></clipPath><clipPath id="e239469b6c"><path d="M 23.128906 158.996094 L 51.300781 115.585938 L 133.089844 168.660156 L 104.917969 212.070312 Z M 23.128906 158.996094 " clip-rule="nonzero"/></clipPath><clipPath id="0554ad47fe"><path d="M 81 181 L 91 181 L 91 192 L 81 192 Z M 81 181 " clip-rule="nonzero"/></clipPath><clipPath id="2efe71cbcd"><path d="M 23.128906 158.996094 L 51.300781 115.585938 L 133.089844 168.660156 L 104.917969 212.070312 Z M 23.128906 158.996094 " clip-rule="nonzero"/></clipPath><clipPath id="1728db3479"><path d="M 23.128906 158.996094 L 51.300781 115.585938 L 133.089844 168.660156 L 104.917969 212.070312 Z M 23.128906 158.996094 " clip-rule="nonzero"/></clipPath><clipPath id="de991dc292"><path d="M 23.128906 158.996094 L 51.300781 115.585938 L 133.089844 168.660156 L 104.917969 212.070312 Z M 23.128906 158.996094 " clip-rule="nonzero"/></clipPath><clipPath id="d53804544f"><path d="M 39 138 L 43 138 L 43 142 L 39 142 Z M 39 138 " clip-rule="nonzero"/></clipPath><clipPath id="f7a978f67a"><path d="M 23.128906 158.996094 L 51.300781 115.585938 L 133.089844 168.660156 L 104.917969 212.070312 Z M 23.128906 158.996094 " clip-rule="nonzero"/></clipPath><clipPath id="96a19d4c9c"><path d="M 23.128906 158.996094 L 51.300781 115.585938 L 133.089844 168.660156 L 104.917969 212.070312 Z M 23.128906 158.996094 " clip-rule="nonzero"/></clipPath><clipPath id="1b6af0f013"><path d="M 23.128906 158.996094 L 51.300781 115.585938 L 133.089844 168.660156 L 104.917969 212.070312 Z M 23.128906 158.996094 " clip-rule="nonzero"/></clipPath><clipPath id="1c91794fc7"><path d="M 49 156 L 52 156 L 52 160 L 49 160 Z M 49 156 " clip-rule="nonzero"/></clipPath><clipPath id="3023fee4b5"><path d="M 23.128906 158.996094 L 51.300781 115.585938 L 133.089844 168.660156 L 104.917969 212.070312 Z M 23.128906 158.996094 " clip-rule="nonzero"/></clipPath><clipPath id="346e44bc2d"><path d="M 23.128906 158.996094 L 51.300781 115.585938 L 133.089844 168.660156 L 104.917969 212.070312 Z M 23.128906 158.996094 " clip-rule="nonzero"/></clipPath><clipPath id="5a96248bf8"><path d="M 23.128906 158.996094 L 51.300781 115.585938 L 133.089844 168.660156 L 104.917969 212.070312 Z M 23.128906 158.996094 " clip-rule="nonzero"/></clipPath><clipPath id="17ed22b620"><path d="M 78 190 L 81 190 L 81 194 L 78 194 Z M 78 190 " clip-rule="nonzero"/></clipPath><clipPath id="77e5283853"><path d="M 23.128906 158.996094 L 51.300781 115.585938 L 133.089844 168.660156 L 104.917969 212.070312 Z M 23.128906 158.996094 " clip-rule="nonzero"/></clipPath><clipPath id="1a97dd0c6d"><path d="M 23.128906 158.996094 L 51.300781 115.585938 L 133.089844 168.660156 L 104.917969 212.070312 Z M 23.128906 158.996094 " clip-rule="nonzero"/></clipPath><clipPath id="ab0f825dcc"><path d="M 23.128906 158.996094 L 51.300781 115.585938 L 133.089844 168.660156 L 104.917969 212.070312 Z M 23.128906 158.996094 " clip-rule="nonzero"/></clipPath><clipPath id="b5a9624912"><path d="M 94 189 L 98 189 L 98 193 L 94 193 Z M 94 189 " clip-rule="nonzero"/></clipPath><clipPath id="53678d23f6"><path d="M 23.128906 158.996094 L 51.300781 115.585938 L 133.089844 168.660156 L 104.917969 212.070312 Z M 23.128906 158.996094 " clip-rule="nonzero"/></clipPath><clipPath id="54f27fc309"><path d="M 23.128906 158.996094 L 51.300781 115.585938 L 133.089844 168.660156 L 104.917969 212.070312 Z M 23.128906 158.996094 " clip-rule="nonzero"/></clipPath><clipPath id="2ec5a0ef9c"><path d="M 23.128906 158.996094 L 51.300781 115.585938 L 133.089844 168.660156 L 104.917969 212.070312 Z M 23.128906 158.996094 " clip-rule="nonzero"/></clipPath><clipPath id="09a65c321d"><path d="M 112 194 L 116 194 L 116 198 L 112 198 Z M 112 194 " clip-rule="nonzero"/></clipPath><clipPath id="0f04573c7b"><path d="M 23.128906 158.996094 L 51.300781 115.585938 L 133.089844 168.660156 L 104.917969 212.070312 Z M 23.128906 158.996094 " clip-rule="nonzero"/></clipPath><clipPath id="4d0fd2a15c"><path d="M 23.128906 158.996094 L 51.300781 115.585938 L 133.089844 168.660156 L 104.917969 212.070312 Z M 23.128906 158.996094 " clip-rule="nonzero"/></clipPath><clipPath id="fbf41a5992"><path d="M 23.128906 158.996094 L 51.300781 115.585938 L 133.089844 168.660156 L 104.917969 212.070312 Z M 23.128906 158.996094 " clip-rule="nonzero"/></clipPath><clipPath id="d167968b9f"><path d="M 45 137 L 49 137 L 49 141 L 45 141 Z M 45 137 " clip-rule="nonzero"/></clipPath><clipPath id="83fc6b7d10"><path d="M 23.128906 158.996094 L 51.300781 115.585938 L 133.089844 168.660156 L 104.917969 212.070312 Z M 23.128906 158.996094 " clip-rule="nonzero"/></clipPath><clipPath id="7335480d80"><path d="M 23.128906 158.996094 L 51.300781 115.585938 L 133.089844 168.660156 L 104.917969 212.070312 Z M 23.128906 158.996094 " clip-rule="nonzero"/></clipPath><clipPath id="b8670f145d"><path d="M 23.128906 158.996094 L 51.300781 115.585938 L 133.089844 168.660156 L 104.917969 212.070312 Z M 23.128906 158.996094 " clip-rule="nonzero"/></clipPath><clipPath id="f583f9608b"><path d="M 68 150 L 72 150 L 72 154 L 68 154 Z M 68 150 " clip-rule="nonzero"/></clipPath><clipPath id="4024eddc58"><path d="M 23.128906 158.996094 L 51.300781 115.585938 L 133.089844 168.660156 L 104.917969 212.070312 Z M 23.128906 158.996094 " clip-rule="nonzero"/></clipPath><clipPath id="161031d8b4"><path d="M 23.128906 158.996094 L 51.300781 115.585938 L 133.089844 168.660156 L 104.917969 212.070312 Z M 23.128906 158.996094 " clip-rule="nonzero"/></clipPath><clipPath id="7b07afba04"><path d="M 23.128906 158.996094 L 51.300781 115.585938 L 133.089844 168.660156 L 104.917969 212.070312 Z M 23.128906 158.996094 " clip-rule="nonzero"/></clipPath><clipPath id="1d7d126d47"><path d="M 35 138 L 38 138 L 38 141 L 35 141 Z M 35 138 " clip-rule="nonzero"/></clipPath><clipPath id="6fd2572ae3"><path d="M 23.128906 158.996094 L 51.300781 115.585938 L 133.089844 168.660156 L 104.917969 212.070312 Z M 23.128906 158.996094 " clip-rule="nonzero"/></clipPath><clipPath id="91d45da335"><path d="M 23.128906 158.996094 L 51.300781 115.585938 L 133.089844 168.660156 L 104.917969 212.070312 Z M 23.128906 158.996094 " clip-rule="nonzero"/></clipPath><clipPath id="446d9071ee"><path d="M 23.128906 158.996094 L 51.300781 115.585938 L 133.089844 168.660156 L 104.917969 212.070312 Z M 23.128906 158.996094 " clip-rule="nonzero"/></clipPath><clipPath id="1d6329ffa8"><path d="M 101 161 L 105 161 L 105 165 L 101 165 Z M 101 161 " clip-rule="nonzero"/></clipPath><clipPath id="1628078ab0"><path d="M 23.128906 158.996094 L 51.300781 115.585938 L 133.089844 168.660156 L 104.917969 212.070312 Z M 23.128906 158.996094 " clip-rule="nonzero"/></clipPath><clipPath id="fc9a1ed5c2"><path d="M 23.128906 158.996094 L 51.300781 115.585938 L 133.089844 168.660156 L 104.917969 212.070312 Z M 23.128906 158.996094 " clip-rule="nonzero"/></clipPath><clipPath id="28552c29d9"><path d="M 23.128906 158.996094 L 51.300781 115.585938 L 133.089844 168.660156 L 104.917969 212.070312 Z M 23.128906 158.996094 " clip-rule="nonzero"/></clipPath><clipPath id="5950999f0f"><path d="M 104 186 L 108 186 L 108 189 L 104 189 Z M 104 186 " clip-rule="nonzero"/></clipPath><clipPath id="edfe0ccbbb"><path d="M 23.128906 158.996094 L 51.300781 115.585938 L 133.089844 168.660156 L 104.917969 212.070312 Z M 23.128906 158.996094 " clip-rule="nonzero"/></clipPath><clipPath id="f59cf3c8e7"><path d="M 23.128906 158.996094 L 51.300781 115.585938 L 133.089844 168.660156 L 104.917969 212.070312 Z M 23.128906 158.996094 " clip-rule="nonzero"/></clipPath><clipPath id="4febdae83f"><path d="M 23.128906 158.996094 L 51.300781 115.585938 L 133.089844 168.660156 L 104.917969 212.070312 Z M 23.128906 158.996094 " clip-rule="nonzero"/></clipPath><clipPath id="df3c6e6829"><path d="M 55 148 L 62 148 L 62 154 L 55 154 Z M 55 148 " clip-rule="nonzero"/></clipPath><clipPath id="1509997a7b"><path d="M 23.128906 158.996094 L 51.300781 115.585938 L 133.089844 168.660156 L 104.917969 212.070312 Z M 23.128906 158.996094 " clip-rule="nonzero"/></clipPath><clipPath id="1ecc31e5db"><path d="M 23.128906 158.996094 L 51.300781 115.585938 L 133.089844 168.660156 L 104.917969 212.070312 Z M 23.128906 158.996094 " clip-rule="nonzero"/></clipPath><clipPath id="22b4605df9"><path d="M 23.128906 158.996094 L 51.300781 115.585938 L 133.089844 168.660156 L 104.917969 212.070312 Z M 23.128906 158.996094 " clip-rule="nonzero"/></clipPath><clipPath id="aa2b432fc7"><path d="M 42 145 L 49 145 L 49 152 L 42 152 Z M 42 145 " clip-rule="nonzero"/></clipPath><clipPath id="eb492e23a3"><path d="M 23.128906 158.996094 L 51.300781 115.585938 L 133.089844 168.660156 L 104.917969 212.070312 Z M 23.128906 158.996094 " clip-rule="nonzero"/></clipPath><clipPath id="542c03b484"><path d="M 23.128906 158.996094 L 51.300781 115.585938 L 133.089844 168.660156 L 104.917969 212.070312 Z M 23.128906 158.996094 " clip-rule="nonzero"/></clipPath><clipPath id="ececbf9f8c"><path d="M 23.128906 158.996094 L 51.300781 115.585938 L 133.089844 168.660156 L 104.917969 212.070312 Z M 23.128906 158.996094 " clip-rule="nonzero"/></clipPath><clipPath id="08c59f8e49"><path d="M 50 138 L 57 138 L 57 145 L 50 145 Z M 50 138 " clip-rule="nonzero"/></clipPath><clipPath id="fedc3deaa2"><path d="M 23.128906 158.996094 L 51.300781 115.585938 L 133.089844 168.660156 L 104.917969 212.070312 Z M 23.128906 158.996094 " clip-rule="nonzero"/></clipPath><clipPath id="9918376ec8"><path d="M 23.128906 158.996094 L 51.300781 115.585938 L 133.089844 168.660156 L 104.917969 212.070312 Z M 23.128906 158.996094 " clip-rule="nonzero"/></clipPath><clipPath id="ce326f01c5"><path d="M 23.128906 158.996094 L 51.300781 115.585938 L 133.089844 168.660156 L 104.917969 212.070312 Z M 23.128906 158.996094 " clip-rule="nonzero"/></clipPath><clipPath id="fe6634e1be"><path d="M 78 171 L 85 171 L 85 178 L 78 178 Z M 78 171 " clip-rule="nonzero"/></clipPath><clipPath id="453d56e833"><path d="M 23.128906 158.996094 L 51.300781 115.585938 L 133.089844 168.660156 L 104.917969 212.070312 Z M 23.128906 158.996094 " clip-rule="nonzero"/></clipPath><clipPath id="8c8019adfe"><path d="M 23.128906 158.996094 L 51.300781 115.585938 L 133.089844 168.660156 L 104.917969 212.070312 Z M 23.128906 158.996094 " clip-rule="nonzero"/></clipPath><clipPath id="dfaff08fab"><path d="M 23.128906 158.996094 L 51.300781 115.585938 L 133.089844 168.660156 L 104.917969 212.070312 Z M 23.128906 158.996094 " clip-rule="nonzero"/></clipPath></defs><g clip-path="url(#fcf2c811df)"><g clip-path="url(#8b5e665f1f)"><path fill="#0a57a2" d="M 235.617188 138.546875 L 285.933594 138.546875 L 285.933594 188.863281 L 235.617188 188.863281 Z M 235.617188 138.546875 " fill-opacity="1" fill-rule="nonzero"/></g></g><g clip-path="url(#8fee7ccec4)"><g clip-path="url(#f8fd972023)"><path fill="#0a57a2" d="M 238.25 162.238281 L 309.078125 162.238281 L 309.078125 233.066406 L 238.25 233.066406 Z M 238.25 162.238281 " fill-opacity="1" fill-rule="nonzero"/></g></g><g clip-path="url(#042dd73570)"><g clip-path="url(#4e12e72237)"><path fill="#cfeeff" d="M 242.210938 145.140625 L 279.339844 145.140625 L 279.339844 182.269531 L 242.210938 182.269531 Z M 242.210938 145.140625 " fill-opacity="1" fill-rule="nonzero"/></g></g><g clip-path="url(#3362ed8d35)"><g clip-path="url(#f47b82c511)"><path fill="#cfeeff" d="M 244.992188 168.980469 L 302.335938 168.980469 L 302.335938 226.324219 L 244.992188 226.324219 Z M 244.992188 168.980469 " fill-opacity="1" fill-rule="nonzero"/></g></g><g clip-path="url(#1120a93104)"><g clip-path="url(#8f447f9969)"><path fill="#0a57a2" d="M 87.960938 129.15625 L 138.273438 129.15625 L 138.273438 179.472656 L 87.960938 179.472656 Z M 87.960938 129.15625 " fill-opacity="1" fill-rule="nonzero"/></g></g><g clip-path="url(#7ecffe9373)"><g clip-path="url(#76e4ce23cc)"><path fill="#0a57a2" d="M 67.449219 154.316406 L 138.273438 154.316406 L 138.273438 225.140625 L 67.449219 225.140625 Z M 67.449219 154.316406 " fill-opacity="1" fill-rule="nonzero"/></g></g><g clip-path="url(#2fbeb2a034)"><g clip-path="url(#fb7e4d52d4)"><path fill="#cfeeff" d="M 94.554688 135.75 L 131.683594 135.75 L 131.683594 172.878906 L 94.554688 172.878906 Z M 94.554688 135.75 " fill-opacity="1" fill-rule="nonzero"/></g></g><g clip-path="url(#6fbbad4f15)"><g clip-path="url(#dd22b48aa8)"><path fill="#cfeeff" d="M 74.191406 161.054688 L 131.535156 161.054688 L 131.535156 218.398438 L 74.191406 218.398438 Z M 74.191406 161.054688 " fill-opacity="1" fill-rule="nonzero"/></g></g><g clip-path="url(#0ea2f31fe6)"><g clip-path="url(#84978991b0)"><path fill="#1995ed" d="M 98.03125 87.453125 L 270.835938 87.453125 L 270.835938 265.019531 L 98.03125 265.019531 Z M 98.03125 87.453125 " fill-opacity="1" fill-rule="nonzero"/></g></g><g clip-path="url(#a611a25a48)"><g clip-path="url(#39c7ab1ed3)"><path stroke-linecap="butt" transform="matrix(0.75, 0, 0, 0.75, 98.032572, 87.456256)" fill="none" stroke-linejoin="miter" d="M 67.591991 236.740633 L 162.800331 236.740633 C 177.269082 236.740633 189.664916 226.381257 192.227416 212.136464 L 225.961793 24.605202 C 227.060752 18.511452 225.399293 12.245826 221.425335 7.495826 C 217.456584 2.745826 211.581584 0.00103386 205.394084 0.00103386 L 24.998238 0.00103386 C 18.80553 0.00103386 12.935738 2.745826 8.961779 7.495826 C 4.993029 12.245826 3.33157 18.511452 4.42532 24.605202 L 38.164906 212.136464 C 40.727406 226.381257 53.118032 236.740633 67.591991 236.740633 Z M 67.591991 236.740633 " stroke="#0a57a2" stroke-width="20" stroke-opacity="1" stroke-miterlimit="4"/></g></g><g clip-path="url(#0baae2ea2b)"><g clip-path="url(#37a4247194)"><path fill="#0a57a2" d="M 81.359375 225.78125 L 287.503906 225.78125 L 287.503906 287.546875 L 81.359375 287.546875 Z M 81.359375 225.78125 " fill-opacity="1" fill-rule="nonzero"/></g></g><g clip-path="url(#eeb4576058)"><g clip-path="url(#9d46ee4242)"><path fill="#ffffff" d="M 133.207031 104.34375 L 236.027344 104.34375 L 236.027344 207.160156 L 133.207031 207.160156 Z M 133.207031 104.34375 " fill-opacity="1" fill-rule="nonzero"/></g></g><g clip-path="url(#628e0d6756)"><g clip-path="url(#70378d4c79)"><path stroke-linecap="butt" transform="matrix(0.75, 0, 0, 0.75, 133.20842, 104.343092)" fill="none" stroke-linejoin="miter" d="M 68.53982 0.000877936 C 30.685651 0.000877936 -0.00185134 30.68838 -0.00185134 68.537341 C -0.00185134 106.39151 30.685651 137.079012 68.53982 137.079012 C 106.393989 137.079012 137.076283 106.39151 137.076283 68.537341 C 137.076283 30.68838 106.393989 0.000877936 68.53982 0.000877936 Z M 68.53982 0.000877936 " stroke="#0a57a2" stroke-width="20" stroke-opacity="1" stroke-miterlimit="4"/></g></g><path stroke-linecap="butt" transform="matrix(0.748584, -0.0460645, 0.0460645, 0.748584, 63.631371, 193.81241)" fill="none" stroke-linejoin="miter" d="M 44.477396 27.800007 L 30.330839 27.800927 L 30.331136 47.384796 L 20.75054 47.384903 L 20.750244 27.801035 L 6.608885 27.802276 L 6.607039 81.001563 L 20.753597 81.000642 L 20.7533 61.416774 L 30.333895 61.416666 L 30.334192 81.000534 L 44.475551 80.999294 Z M 78.525462 73.347004 L 80.762838 80.998869 L 94.470802 81.002268 L 78.635379 27.804227 L 64.269844 27.802109 L 48.196157 80.998643 L 62.034723 80.999643 L 64.159928 73.344886 Z M 74.90855 60.893008 L 67.97903 60.889269 L 71.395439 45.564962 Z M 130.643417 58.019117 C 134.147917 55.255184 135.967859 50.78039 135.968322 44.836905 C 135.968291 33.983078 130.112763 27.804478 119.807017 27.801708 L 98.099361 27.801771 L 98.097516 81.001058 L 112.244073 81.000138 L 112.241379 61.964031 L 117.02112 61.965937 C 120.749886 63.019862 122.768672 65.998437 122.768526 70.579994 L 122.769116 81.000747 L 135.751929 81.001269 L 135.751664 72.271229 C 135.747806 65.889151 133.949512 61.108216 130.643417 58.019117 Z M 118.622541 49.509527 L 112.240783 49.508186 L 112.241717 40.673856 L 118.623476 40.675197 C 121.603016 40.675908 123.4041 42.273921 123.404589 45.149172 C 123.406916 47.909735 121.60728 49.510558 118.622541 49.509527 Z M 189.374214 80.997835 L 189.370541 27.803427 L 176.716513 27.802264 L 165.426412 55.583159 L 154.158303 27.802169 L 141.504275 27.801006 L 141.502429 81.000293 L 155.648987 80.999372 L 155.648523 58.874237 L 162.552814 73.873489 L 168.407604 73.873712 L 175.227193 58.873621 L 175.227656 80.998756 Z M 215.111189 81.746665 C 228.094002 81.747187 235.549102 71.853061 235.547932 54.403377 C 235.55132 36.964409 228.093764 27.055371 215.11095 27.054848 C 202.133336 27.054646 194.80236 36.966847 194.80449 54.400935 C 194.80534 71.855818 202.133574 81.746462 215.111189 81.746665 Z M 215.219756 67.601627 C 210.966984 67.600839 208.620367 62.911399 208.622262 54.400655 C 208.624157 45.889911 210.967627 41.217733 215.2204 41.218521 C 219.259074 41.221788 221.497162 45.894113 221.714564 54.402697 C 221.493692 62.910402 219.258751 67.599695 215.219756 67.601627 Z M 240.971483 81.000245 L 255.118041 80.999325 L 255.115569 56.108428 L 267.025804 81.00153 L 278.839995 80.997976 L 278.84152 27.803888 L 264.695283 27.79961 L 264.697994 52.601812 L 252.771604 27.801644 L 240.973329 27.800958 Z M 325.648652 27.803753 L 310.761348 27.800837 L 304.269514 45.785025 L 297.888024 27.801833 L 283.0004 27.804116 L 297.254857 59.291148 L 297.25492 80.998803 L 311.396279 80.997562 L 311.396216 59.289907 Z M 325.648652 27.803753 " stroke="#0a57a2" stroke-width="19.548874" stroke-opacity="1" stroke-miterlimit="4"/><g fill="#ffffff" fill-opacity="1"><g transform="translate(70.076215, 254.280728)"><g><path d="M 28.132812 -41.699219 L 17.539062 -41.050781 L 18.441406 -26.394531 L 11.273438 -25.953125 L 10.371094 -40.609375 L -0.21875 -39.957031 L 2.230469 -0.136719 L 12.820312 -0.789062 L 11.921875 -15.441406 L 19.085938 -15.882812 L 19.988281 -1.230469 L 30.582031 -1.882812 Z M 28.132812 -41.699219 "/></g></g></g><g fill="#ffffff" fill-opacity="1"><g transform="translate(102.966461, 252.256808)"><g><path d="M 22.820312 -7.160156 L 24.847656 -1.527344 L 35.121094 -2.160156 L 20.804688 -41.25 L 10.054688 -40.589844 L 0.476562 -0.03125 L 10.832031 -0.667969 L 12.070312 -6.5 Z M 19.539062 -16.3125 L 14.363281 -15.992188 L 16.207031 -27.617188 Z M 19.539062 -16.3125 "/></g></g></g><g fill="#ffffff" fill-opacity="1"><g transform="translate(138.564372, 250.066271)"><g><path d="M 25.539062 -18.839844 C 28.042969 -21.070312 29.191406 -24.5 28.914062 -28.957031 C 28.414062 -37.082031 23.75 -41.429688 16.027344 -40.957031 L -0.21875 -39.957031 L 2.230469 -0.136719 L 12.820312 -0.789062 L 11.945312 -15.042969 L 15.527344 -15.265625 C 18.363281 -14.640625 20.015625 -12.503906 20.226562 -9.078125 L 20.707031 -1.273438 L 30.421875 -1.871094 L 30.019531 -8.402344 C 29.726562 -13.179688 28.152344 -16.679688 25.539062 -18.839844 Z M 16.148438 -24.65625 L 11.371094 -24.363281 L 10.964844 -30.972656 L 15.742188 -31.265625 C 17.972656 -31.402344 19.398438 -30.292969 19.53125 -28.140625 C 19.660156 -26.070312 18.378906 -24.792969 16.148438 -24.65625 Z M 16.148438 -24.65625 "/></g></g></g><g fill="#ffffff" fill-opacity="1"><g transform="translate(171.056431, 248.066854)"><g><path d="M 38.066406 -2.34375 L 35.617188 -42.160156 L 26.140625 -41.578125 L 18.976562 -20.273438 L 9.257812 -40.539062 L -0.21875 -39.957031 L 2.230469 -0.136719 L 12.820312 -0.789062 L 11.800781 -17.355469 L 17.671875 -6.441406 L 22.050781 -6.710938 L 26.457031 -18.253906 L 27.476562 -1.691406 Z M 38.066406 -2.34375 "/></g></g></g><g fill="#ffffff" fill-opacity="1"><g transform="translate(211.352947, 245.587185)"><g><path d="M 17.078125 -0.492188 C 26.792969 -1.089844 31.910156 -8.839844 31.109375 -21.898438 C 30.304688 -34.960938 24.273438 -42.023438 14.558594 -41.425781 C 4.84375 -40.828125 -0.195312 -33.082031 0.605469 -20.023438 C 1.410156 -6.960938 7.359375 0.105469 17.078125 -0.492188 Z M 16.503906 -11.089844 C 13.320312 -10.890625 11.351562 -14.289062 10.960938 -20.660156 C 10.566406 -27.03125 12.105469 -30.640625 15.289062 -30.839844 C 18.316406 -31.023438 20.203125 -27.625 20.753906 -21.261719 C 20.988281 -14.882812 19.53125 -11.273438 16.503906 -11.089844 Z M 16.503906 -11.089844 "/></g></g></g><g fill="#ffffff" fill-opacity="1"><g transform="translate(245.517382, 243.484857)"><g><path d="M 2.230469 -0.136719 L 12.820312 -0.789062 L 11.675781 -19.425781 L 21.742188 -1.335938 L 30.582031 -1.882812 L 28.132812 -41.699219 L 17.539062 -41.050781 L 18.679688 -22.492188 L 8.621094 -40.5 L -0.21875 -39.957031 Z M 2.230469 -0.136719 "/></g></g></g><g fill="#ffffff" fill-opacity="1"><g transform="translate(278.407628, 241.460938)"><g><path d="M 30.28125 -41.832031 L 19.132812 -41.148438 L 15.101562 -27.390625 L 9.496094 -40.554688 L -1.652344 -39.867188 L 10.46875 -16.953125 L 11.46875 -0.707031 L 22.058594 -1.359375 L 21.058594 -17.605469 Z M 30.28125 -41.832031 "/></g></g></g><g clip-path="url(#8fe8b876cc)"><g clip-path="url(#bb96002d4d)"><path stroke-linecap="butt" transform="matrix(0.75, 0, 0, 0.75, 148.666915, 119.985242)" fill="none" stroke-linejoin="miter" d="M 47.688908 -0.00115563 C 21.350365 -0.00115563 0.00140535 21.353012 0.00140535 47.686348 C 0.00140535 74.024891 21.350365 95.373851 47.688908 95.373851 C 74.022244 95.373851 95.376412 74.024891 95.376412 47.686348 C 95.376412 21.353012 74.022244 -0.00115563 47.688908 -0.00115563 Z M 47.688908 -0.00115563 " stroke="#0a57a2" stroke-width="10" stroke-opacity="1" stroke-miterlimit="4"/></g></g><g clip-path="url(#5a1036a3e8)"><path fill="#36a9e1" d="M 210.097656 145.273438 C 209.851562 144.695312 209.589844 144.128906 209.308594 143.570312 C 209.175781 143.269531 209.035156 143.003906 208.890625 142.769531 C 208.886719 142.761719 208.882812 142.753906 208.878906 142.746094 C 208.875 142.746094 208.875 142.742188 208.871094 142.742188 C 208.871094 142.742188 208.871094 142.742188 208.871094 142.738281 C 207.78125 141.007812 206.488281 141.113281 206.175781 141.167969 C 204.566406 141.136719 203.84375 143.898438 203.84375 143.898438 C 202.625 149.703125 199.105469 150.570312 199.050781 150.582031 C 201.667969 148.355469 201.390625 142.785156 198.214844 142.785156 C 195.585938 142.785156 195.4375 146.066406 195.464844 147.195312 C 195.410156 147.890625 195.296875 148.835938 195.070312 149.710938 C 193.808594 153.886719 190.324219 155.457031 187.421875 156.019531 C 186.203125 156.203125 184.058594 156.359375 181.863281 155.765625 C 173.660156 152.59375 169.019531 159.832031 169.019531 159.832031 C 164.554688 166.660156 160.191406 164.925781 157.820312 163.0625 C 157.816406 163.058594 157.816406 163.058594 157.8125 163.058594 C 157.78125 163.03125 157.75 163.007812 157.71875 162.980469 C 157.507812 162.8125 157.3125 162.640625 157.132812 162.476562 C 157.136719 162.484375 157.140625 162.496094 157.140625 162.503906 C 156.953125 162.332031 156.753906 162.132812 156.554688 161.90625 C 156.921875 163.714844 157.472656 165.484375 158.195312 167.199219 C 159.617188 170.554688 161.644531 173.566406 164.230469 176.152344 C 166.820312 178.738281 169.832031 180.769531 173.183594 182.1875 C 176.65625 183.65625 180.34375 184.398438 184.148438 184.398438 C 187.949219 184.398438 191.636719 183.65625 195.109375 182.1875 C 198.464844 180.769531 201.476562 178.738281 204.0625 176.152344 C 206.648438 173.566406 208.679688 170.554688 210.097656 167.199219 C 211.566406 163.726562 212.308594 160.039062 212.308594 156.238281 C 212.308594 152.433594 211.566406 148.746094 210.097656 145.273438 Z M 203.46875 149.890625 C 204.433594 149.890625 205.214844 150.675781 205.214844 151.636719 C 205.214844 152.601562 204.433594 153.382812 203.46875 153.382812 C 202.503906 153.382812 201.722656 152.601562 201.722656 151.636719 C 201.722656 150.675781 202.503906 149.890625 203.46875 149.890625 Z M 207.84375 169.722656 C 205.960938 171.785156 202.492188 174.789062 198.9375 173.8125 C 198.9375 173.8125 205.140625 169.839844 202.207031 167.90625 C 199.269531 165.976562 197.894531 174.222656 186.679688 172.476562 C 186.679688 172.476562 179.660156 170.582031 176.390625 172.8125 C 173.785156 174.585938 170.234375 176.554688 165.980469 176.5625 C 163.582031 174.414062 161.566406 171.851562 160.042969 168.988281 C 161.632812 169.683594 163.988281 170.09375 167.027344 168.910156 C 173.046875 166.570312 171.523438 160.738281 182.742188 164.566406 C 187.8125 166.292969 191.730469 164.496094 194.5 162.003906 C 194.703125 161.820312 194.902344 161.632812 195.09375 161.441406 C 195.398438 161.136719 195.691406 160.828125 195.964844 160.515625 C 197.6875 158.410156 199.34375 154.933594 199.34375 154.933594 L 199.351562 154.933594 C 199.570312 154.25 200.210938 153.753906 200.96875 153.753906 C 201.609375 153.753906 202.164062 154.109375 202.453125 154.632812 C 202.507812 154.730469 202.550781 154.832031 202.585938 154.941406 C 202.628906 155.078125 202.652344 155.21875 202.660156 155.367188 C 202.660156 155.367188 202.660156 155.371094 202.660156 155.371094 C 202.734375 156.0625 202.640625 157.222656 201.773438 158.835938 C 200.6875 161.140625 198.898438 163.265625 198.898438 163.265625 C 198.898438 163.265625 202.800781 162.671875 204.84375 158.769531 C 206.476562 155.652344 209.320312 153.554688 211.34375 154.207031 C 211.394531 154.875 211.417969 155.554688 211.417969 156.238281 C 211.417969 161.140625 210.117188 165.742188 207.84375 169.722656 Z M 205.882812 165.753906 C 205.882812 166.71875 205.101562 167.5 204.136719 167.5 C 203.171875 167.5 202.390625 166.71875 202.390625 165.753906 C 202.390625 164.789062 203.171875 164.007812 204.136719 164.007812 C 205.101562 164.007812 205.882812 164.789062 205.882812 165.753906 Z M 196.820312 139.453125 C 196.820312 138.492188 197.601562 137.710938 198.566406 137.710938 C 199.53125 137.710938 200.3125 138.492188 200.3125 139.453125 C 200.3125 140.417969 199.53125 141.199219 198.566406 141.199219 C 197.601562 141.199219 196.820312 140.417969 196.820312 139.453125 Z M 196.820312 139.453125 " fill-opacity="1" fill-rule="nonzero"/></g><path stroke-linecap="round" transform="matrix(0.75, 0.000000000000000625, -0.000000000000000625, 0.75, 118.753379, 104.477477)" fill="none" stroke-linejoin="miter" d="M 5.500703 5.498781 L 28.589246 5.498781 " stroke="#00529c" stroke-width="11" stroke-opacity="1" stroke-miterlimit="4"/><g clip-path="url(#cdc435423d)"><g clip-path="url(#de08be604b)"><path fill="#00529c" d="M 229.421875 102.324219 L 247.082031 102.324219 L 247.082031 119.984375 L 229.421875 119.984375 Z M 229.421875 102.324219 " fill-opacity="1" fill-rule="nonzero"/></g></g><g fill="#ffffff" fill-opacity="1"><g transform="translate(142.802587, 269.519601)"><g><path d="M 3.046875 0.0625 C 2.492188 0.0625 2.054688 -0.0976562 1.734375 -0.421875 C 1.410156 -0.742188 1.25 -1.179688 1.25 -1.734375 L 1.25 -11.71875 C 1.394531 -11.75 1.617188 -11.785156 1.921875 -11.828125 C 2.234375 -11.867188 2.53125 -11.890625 2.8125 -11.890625 C 3.113281 -11.890625 3.375 -11.867188 3.59375 -11.828125 C 3.820312 -11.785156 4.015625 -11.703125 4.171875 -11.578125 C 4.328125 -11.460938 4.441406 -11.300781 4.515625 -11.09375 C 4.597656 -10.894531 4.640625 -10.628906 4.640625 -10.296875 L 4.640625 -2.671875 L 9.0625 -2.671875 C 9.144531 -2.523438 9.222656 -2.332031 9.296875 -2.09375 C 9.378906 -1.851562 9.421875 -1.609375 9.421875 -1.359375 C 9.421875 -0.835938 9.3125 -0.46875 9.09375 -0.25 C 8.875 -0.0390625 8.585938 0.0625 8.234375 0.0625 Z M 3.046875 0.0625 "/></g></g></g><g fill="#ffffff" fill-opacity="1"><g transform="translate(155.02768, 269.519601)"><g><path d="M 3.75 -11.359375 C 3.96875 -11.484375 4.296875 -11.601562 4.734375 -11.71875 C 5.179688 -11.832031 5.628906 -11.890625 6.078125 -11.890625 C 6.722656 -11.890625 7.289062 -11.796875 7.78125 -11.609375 C 8.28125 -11.429688 8.601562 -11.140625 8.75 -10.734375 C 8.976562 -10.066406 9.226562 -9.285156 9.5 -8.390625 C 9.769531 -7.503906 10.039062 -6.585938 10.3125 -5.640625 C 10.582031 -4.703125 10.84375 -3.769531 11.09375 -2.84375 C 11.351562 -1.925781 11.582031 -1.113281 11.78125 -0.40625 C 11.625 -0.226562 11.390625 -0.0859375 11.078125 0.015625 C 10.773438 0.128906 10.410156 0.1875 9.984375 0.1875 C 9.671875 0.1875 9.410156 0.160156 9.203125 0.109375 C 8.992188 0.0546875 8.820312 -0.015625 8.6875 -0.109375 C 8.550781 -0.210938 8.441406 -0.347656 8.359375 -0.515625 C 8.273438 -0.679688 8.195312 -0.875 8.125 -1.09375 L 7.78125 -2.4375 L 4.28125 -2.4375 C 4.1875 -2.050781 4.085938 -1.648438 3.984375 -1.234375 C 3.878906 -0.828125 3.773438 -0.425781 3.671875 -0.03125 C 3.492188 0.03125 3.300781 0.0820312 3.09375 0.125 C 2.894531 0.164062 2.65625 0.1875 2.375 0.1875 C 1.71875 0.1875 1.226562 0.078125 0.90625 -0.140625 C 0.59375 -0.367188 0.4375 -0.679688 0.4375 -1.078125 C 0.4375 -1.265625 0.460938 -1.445312 0.515625 -1.625 C 0.566406 -1.800781 0.625 -2.015625 0.6875 -2.265625 C 0.78125 -2.609375 0.90625 -3.035156 1.0625 -3.546875 C 1.226562 -4.066406 1.40625 -4.625 1.59375 -5.21875 C 1.789062 -5.820312 2 -6.4375 2.21875 -7.0625 C 2.4375 -7.695312 2.640625 -8.289062 2.828125 -8.84375 C 3.023438 -9.40625 3.203125 -9.90625 3.359375 -10.34375 C 3.523438 -10.789062 3.65625 -11.128906 3.75 -11.359375 Z M 6.0625 -8.859375 C 5.882812 -8.316406 5.679688 -7.710938 5.453125 -7.046875 C 5.234375 -6.390625 5.03125 -5.722656 4.84375 -5.046875 L 7.234375 -5.046875 C 7.054688 -5.734375 6.875 -6.410156 6.6875 -7.078125 C 6.5 -7.742188 6.332031 -8.335938 6.1875 -8.859375 Z M 6.0625 -8.859375 "/></g></g></g><g fill="#ffffff" fill-opacity="1"><g transform="translate(169.454387, 269.519601)"><g><path d="M 11.625 -4.328125 C 11.625 -3.628906 11.503906 -2.992188 11.265625 -2.421875 C 11.023438 -1.847656 10.679688 -1.359375 10.234375 -0.953125 C 9.785156 -0.546875 9.238281 -0.234375 8.59375 -0.015625 C 7.945312 0.203125 7.21875 0.3125 6.40625 0.3125 C 5.59375 0.3125 4.863281 0.203125 4.21875 -0.015625 C 3.582031 -0.234375 3.035156 -0.546875 2.578125 -0.953125 C 2.128906 -1.359375 1.785156 -1.847656 1.546875 -2.421875 C 1.316406 -2.992188 1.203125 -3.628906 1.203125 -4.328125 L 1.203125 -11.703125 C 1.335938 -11.722656 1.5625 -11.753906 1.875 -11.796875 C 2.1875 -11.847656 2.484375 -11.875 2.765625 -11.875 C 3.054688 -11.875 3.3125 -11.847656 3.53125 -11.796875 C 3.757812 -11.753906 3.953125 -11.675781 4.109375 -11.5625 C 4.265625 -11.445312 4.378906 -11.285156 4.453125 -11.078125 C 4.535156 -10.878906 4.578125 -10.613281 4.578125 -10.28125 L 4.578125 -4.390625 C 4.578125 -3.765625 4.742188 -3.273438 5.078125 -2.921875 C 5.421875 -2.578125 5.863281 -2.40625 6.40625 -2.40625 C 6.957031 -2.40625 7.398438 -2.578125 7.734375 -2.921875 C 8.078125 -3.273438 8.25 -3.765625 8.25 -4.390625 L 8.25 -11.703125 C 8.382812 -11.722656 8.609375 -11.753906 8.921875 -11.796875 C 9.234375 -11.847656 9.53125 -11.875 9.8125 -11.875 C 10.101562 -11.875 10.363281 -11.847656 10.59375 -11.796875 C 10.820312 -11.753906 11.007812 -11.675781 11.15625 -11.5625 C 11.3125 -11.445312 11.425781 -11.285156 11.5 -11.078125 C 11.582031 -10.878906 11.625 -10.613281 11.625 -10.28125 Z M 11.625 -4.328125 "/></g></g></g><g fill="#ffffff" fill-opacity="1"><g transform="translate(184.595652, 269.519601)"><g><path d="M 11.859375 -0.40625 C 11.679688 -0.226562 11.421875 -0.09375 11.078125 0 C 10.734375 0.101562 10.320312 0.15625 9.84375 0.15625 C 9.375 0.15625 8.925781 0.0859375 8.5 -0.046875 C 8.070312 -0.191406 7.722656 -0.535156 7.453125 -1.078125 L 5.546875 -4.984375 C 5.347656 -5.378906 5.171875 -5.753906 5.015625 -6.109375 C 4.867188 -6.460938 4.703125 -6.875 4.515625 -7.34375 L 4.40625 -7.3125 C 4.457031 -6.625 4.484375 -5.914062 4.484375 -5.1875 C 4.492188 -4.46875 4.5 -3.765625 4.5 -3.078125 L 4.5 -0.078125 C 4.351562 -0.0351562 4.132812 0 3.84375 0.03125 C 3.5625 0.0703125 3.28125 0.09375 3 0.09375 C 2.707031 0.09375 2.453125 0.0703125 2.234375 0.03125 C 2.015625 0 1.832031 -0.0703125 1.6875 -0.1875 C 1.550781 -0.300781 1.441406 -0.457031 1.359375 -0.65625 C 1.285156 -0.863281 1.25 -1.128906 1.25 -1.453125 L 1.25 -11.109375 C 1.4375 -11.359375 1.710938 -11.546875 2.078125 -11.671875 C 2.453125 -11.804688 2.851562 -11.875 3.28125 -11.875 C 3.757812 -11.875 4.210938 -11.800781 4.640625 -11.65625 C 5.078125 -11.507812 5.421875 -11.171875 5.671875 -10.640625 L 7.609375 -6.734375 C 7.804688 -6.335938 7.976562 -5.960938 8.125 -5.609375 C 8.28125 -5.253906 8.445312 -4.847656 8.625 -4.390625 L 8.734375 -4.40625 C 8.679688 -5.101562 8.644531 -5.796875 8.625 -6.484375 C 8.613281 -7.179688 8.609375 -7.878906 8.609375 -8.578125 L 8.609375 -11.703125 C 8.753906 -11.742188 8.96875 -11.78125 9.25 -11.8125 C 9.539062 -11.851562 9.832031 -11.875 10.125 -11.875 C 10.6875 -11.875 11.113281 -11.773438 11.40625 -11.578125 C 11.707031 -11.378906 11.859375 -10.960938 11.859375 -10.328125 Z M 11.859375 -0.40625 "/></g></g></g><g fill="#ffffff" fill-opacity="1"><g transform="translate(200.026601, 269.519601)"><g><path d="M 4.609375 -2.515625 C 4.753906 -2.484375 4.929688 -2.457031 5.140625 -2.4375 C 5.347656 -2.414062 5.539062 -2.40625 5.71875 -2.40625 C 6.15625 -2.40625 6.554688 -2.46875 6.921875 -2.59375 C 7.285156 -2.726562 7.597656 -2.929688 7.859375 -3.203125 C 8.128906 -3.472656 8.335938 -3.820312 8.484375 -4.25 C 8.628906 -4.6875 8.703125 -5.207031 8.703125 -5.8125 C 8.703125 -6.96875 8.429688 -7.835938 7.890625 -8.421875 C 7.359375 -9.015625 6.640625 -9.3125 5.734375 -9.3125 C 5.554688 -9.3125 5.375 -9.300781 5.1875 -9.28125 C 5 -9.269531 4.804688 -9.253906 4.609375 -9.234375 Z M 5.703125 0.3125 C 5.484375 0.3125 5.226562 0.300781 4.9375 0.28125 C 4.65625 0.269531 4.363281 0.242188 4.0625 0.203125 C 3.757812 0.171875 3.457031 0.125 3.15625 0.0625 C 2.851562 0.0078125 2.570312 -0.0664062 2.3125 -0.171875 C 1.601562 -0.441406 1.25 -0.910156 1.25 -1.578125 L 1.25 -10.609375 C 1.25 -10.878906 1.320312 -11.085938 1.46875 -11.234375 C 1.625 -11.378906 1.828125 -11.5 2.078125 -11.59375 C 2.640625 -11.769531 3.226562 -11.882812 3.84375 -11.9375 C 4.457031 -12 5.007812 -12.03125 5.5 -12.03125 C 6.507812 -12.03125 7.421875 -11.90625 8.234375 -11.65625 C 9.054688 -11.414062 9.757812 -11.039062 10.34375 -10.53125 C 10.925781 -10.019531 11.378906 -9.378906 11.703125 -8.609375 C 12.023438 -7.835938 12.1875 -6.925781 12.1875 -5.875 C 12.1875 -4.84375 12.03125 -3.941406 11.71875 -3.171875 C 11.414062 -2.410156 10.976562 -1.769531 10.40625 -1.25 C 9.832031 -0.726562 9.144531 -0.335938 8.34375 -0.078125 C 7.539062 0.179688 6.660156 0.3125 5.703125 0.3125 Z M 5.703125 0.3125 "/></g></g></g><g fill="#ffffff" fill-opacity="1"><g transform="translate(215.20649, 269.519601)"><g><path d="M 4.609375 -3.78125 L 4.609375 -0.078125 C 4.472656 -0.0351562 4.253906 0 3.953125 0.03125 C 3.648438 0.0703125 3.347656 0.09375 3.046875 0.09375 C 2.753906 0.09375 2.492188 0.0703125 2.265625 0.03125 C 2.046875 -0.0078125 1.859375 -0.0859375 1.703125 -0.203125 C 1.554688 -0.328125 1.441406 -0.488281 1.359375 -0.6875 C 1.285156 -0.894531 1.25 -1.164062 1.25 -1.5 L 1.25 -10.609375 C 1.25 -10.878906 1.320312 -11.085938 1.46875 -11.234375 C 1.625 -11.378906 1.828125 -11.5 2.078125 -11.59375 C 2.523438 -11.738281 3.035156 -11.847656 3.609375 -11.921875 C 4.191406 -11.992188 4.8125 -12.03125 5.46875 -12.03125 C 7.238281 -12.03125 8.570312 -11.65625 9.46875 -10.90625 C 10.375 -10.164062 10.828125 -9.15625 10.828125 -7.875 C 10.828125 -7.082031 10.617188 -6.398438 10.203125 -5.828125 C 9.796875 -5.265625 9.3125 -4.828125 8.75 -4.515625 C 9.207031 -3.890625 9.660156 -3.296875 10.109375 -2.734375 C 10.566406 -2.179688 10.925781 -1.679688 11.1875 -1.234375 C 11.050781 -0.785156 10.8125 -0.441406 10.46875 -0.203125 C 10.132812 0.0351562 9.753906 0.15625 9.328125 0.15625 C 9.046875 0.15625 8.800781 0.125 8.59375 0.0625 C 8.382812 0 8.203125 -0.0859375 8.046875 -0.203125 C 7.898438 -0.328125 7.757812 -0.472656 7.625 -0.640625 C 7.5 -0.804688 7.378906 -0.984375 7.265625 -1.171875 L 5.640625 -3.78125 Z M 5.828125 -6.359375 C 6.316406 -6.359375 6.703125 -6.484375 6.984375 -6.734375 C 7.273438 -6.984375 7.421875 -7.351562 7.421875 -7.84375 C 7.421875 -8.332031 7.257812 -8.703125 6.9375 -8.953125 C 6.625 -9.203125 6.128906 -9.328125 5.453125 -9.328125 C 5.253906 -9.328125 5.097656 -9.320312 4.984375 -9.3125 C 4.867188 -9.300781 4.738281 -9.28125 4.59375 -9.25 L 4.59375 -6.359375 Z M 5.828125 -6.359375 "/></g></g></g><g fill="#ffffff" fill-opacity="1"><g transform="translate(229.285571, 269.519601)"><g><path d="M 7.390625 -0.078125 C 7.253906 -0.0351562 7.035156 0 6.734375 0.03125 C 6.441406 0.0703125 6.15625 0.09375 5.875 0.09375 C 5.28125 0.09375 4.832031 -0.00390625 4.53125 -0.203125 C 4.238281 -0.398438 4.09375 -0.820312 4.09375 -1.46875 L 4.09375 -4.078125 C 3.769531 -4.554688 3.421875 -5.082031 3.046875 -5.65625 C 2.671875 -6.238281 2.300781 -6.832031 1.9375 -7.4375 C 1.582031 -8.039062 1.25 -8.632812 0.9375 -9.21875 C 0.632812 -9.800781 0.382812 -10.335938 0.1875 -10.828125 C 0.351562 -11.066406 0.582031 -11.28125 0.875 -11.46875 C 1.164062 -11.664062 1.523438 -11.765625 1.953125 -11.765625 C 2.453125 -11.765625 2.859375 -11.660156 3.171875 -11.453125 C 3.492188 -11.242188 3.796875 -10.859375 4.078125 -10.296875 L 5.671875 -7.0625 L 5.796875 -7.0625 C 5.972656 -7.46875 6.128906 -7.832031 6.265625 -8.15625 C 6.398438 -8.488281 6.53125 -8.816406 6.65625 -9.140625 C 6.789062 -9.472656 6.925781 -9.816406 7.0625 -10.171875 C 7.207031 -10.523438 7.367188 -10.929688 7.546875 -11.390625 C 7.785156 -11.503906 8.046875 -11.59375 8.328125 -11.65625 C 8.609375 -11.726562 8.878906 -11.765625 9.140625 -11.765625 C 9.585938 -11.765625 9.96875 -11.644531 10.28125 -11.40625 C 10.59375 -11.164062 10.75 -10.804688 10.75 -10.328125 C 10.75 -10.171875 10.71875 -9.984375 10.65625 -9.765625 C 10.59375 -9.546875 10.445312 -9.210938 10.21875 -8.765625 C 9.988281 -8.328125 9.648438 -7.726562 9.203125 -6.96875 C 8.753906 -6.207031 8.148438 -5.21875 7.390625 -4 Z M 7.390625 -0.078125 "/></g></g></g><g clip-path="url(#4b259fe242)"><g clip-path="url(#030a84231d)"><g clip-path="url(#d02007f1c5)"><g clip-path="url(#1277b4705c)"><path fill="#00b8f1" d="M 289.230469 177.363281 C 286.019531 173.121094 279.957031 172.300781 275.691406 175.527344 C 271.425781 178.757812 270.570312 184.816406 273.78125 189.058594 C 276.992188 193.300781 283.054688 194.121094 287.320312 190.894531 C 291.585938 187.664062 292.441406 181.605469 289.230469 177.363281 Z M 285.667969 188.074219 C 284.355469 188.6875 283.535156 186.605469 284.84375 185.996094 C 287.046875 184.96875 287.363281 182.453125 286.125 180.535156 C 285.347656 179.332031 287.136719 177.96875 287.917969 179.179688 C 289.964844 182.351562 289.257812 186.402344 285.667969 188.074219 Z M 285.667969 188.074219 " fill-opacity="1" fill-rule="nonzero"/></g></g></g></g><g clip-path="url(#4468ea1b26)"><g clip-path="url(#97a85378a6)"><g clip-path="url(#9f942438be)"><g clip-path="url(#befbc36dc2)"><path fill="#00b8f1" d="M 295.5625 157.796875 C 298.773438 162.039062 304.835938 162.863281 309.101562 159.632812 C 313.367188 156.402344 314.222656 150.347656 311.011719 146.105469 C 307.800781 141.863281 301.738281 141.039062 297.472656 144.269531 C 293.207031 147.5 292.351562 153.554688 295.5625 157.796875 Z M 309.511719 147.378906 C 311.617188 150.890625 311.332031 155.226562 307.738281 157.664062 C 306.542969 158.472656 305.191406 156.691406 306.390625 155.878906 C 308.898438 154.179688 309.226562 151.25 307.71875 148.738281 C 306.988281 147.515625 308.773438 146.148438 309.511719 147.378906 Z M 309.511719 147.378906 " fill-opacity="1" fill-rule="nonzero"/></g></g></g></g><g clip-path="url(#a8a390a79f)"><g clip-path="url(#40093b6465)"><g clip-path="url(#f1a53c2bc2)"><g clip-path="url(#98a276d659)"><path fill="#00b8f1" d="M 317.570312 170.8125 C 313.609375 165.582031 306.132812 164.570312 300.875 168.550781 C 295.613281 172.53125 294.558594 180 298.519531 185.234375 C 302.480469 190.464844 309.953125 191.476562 315.214844 187.496094 C 320.476562 183.511719 321.527344 176.042969 317.570312 170.8125 Z M 308.574219 187.742188 C 307.136719 187.882812 306.871094 185.660156 308.3125 185.519531 C 313.597656 185 317.109375 179.507812 314.160156 174.765625 C 313.40625 173.550781 315.191406 172.1875 315.953125 173.410156 C 319.753906 179.527344 315.6875 187.042969 308.574219 187.742188 Z M 308.574219 187.742188 " fill-opacity="1" fill-rule="nonzero"/></g></g></g></g><g clip-path="url(#b18865893d)"><g clip-path="url(#0001ff5d3b)"><g clip-path="url(#920c408732)"><g clip-path="url(#d7e1c5adc2)"><path fill="#00b8f1" d="M 282.613281 154.65625 C 282.300781 154.890625 281.957031 155.058594 281.578125 155.15625 C 281.203125 155.257812 280.820312 155.28125 280.433594 155.226562 C 280.050781 155.175781 279.6875 155.050781 279.355469 154.855469 C 279.019531 154.660156 278.734375 154.40625 278.5 154.097656 C 278.265625 153.789062 278.097656 153.445312 278 153.070312 C 277.902344 152.691406 277.882812 152.3125 277.9375 151.925781 C 277.992188 151.542969 278.117188 151.179688 278.316406 150.84375 C 278.511719 150.507812 278.769531 150.222656 279.078125 149.988281 C 279.390625 149.75 279.734375 149.585938 280.113281 149.484375 C 280.488281 149.386719 280.871094 149.363281 281.257812 149.414062 C 281.640625 149.46875 282.003906 149.589844 282.335938 149.785156 C 282.671875 149.984375 282.957031 150.234375 283.191406 150.542969 C 283.425781 150.855469 283.59375 151.195312 283.691406 151.574219 C 283.789062 151.949219 283.808594 152.328125 283.753906 152.714844 C 283.699219 153.101562 283.574219 153.460938 283.375 153.796875 C 283.179688 154.132812 282.921875 154.417969 282.613281 154.65625 Z M 282.613281 154.65625 " fill-opacity="1" fill-rule="nonzero"/></g></g></g></g><g clip-path="url(#8ef09a382a)"><g clip-path="url(#d3bbbad537)"><g clip-path="url(#7e94eb1142)"><g clip-path="url(#4790878977)"><path fill="#00b8f1" d="M 281.503906 162.398438 C 279.898438 160.277344 276.867188 159.867188 274.734375 161.480469 C 272.601562 163.097656 272.171875 166.125 273.777344 168.246094 C 275.382812 170.367188 278.414062 170.777344 280.546875 169.164062 C 282.679688 167.550781 283.109375 164.519531 281.503906 162.398438 Z M 278.457031 169.035156 C 277.875 169.214844 277.238281 169.015625 277 168.414062 C 276.792969 167.886719 277.050781 167.132812 277.632812 166.957031 C 278.246094 166.773438 278.566406 166.511719 278.753906 165.871094 C 278.925781 165.289062 279.710938 165.054688 280.222656 165.265625 C 280.824219 165.511719 280.996094 166.144531 280.824219 166.726562 C 280.496094 167.847656 279.566406 168.703125 278.457031 169.035156 Z M 278.457031 169.035156 " fill-opacity="1" fill-rule="nonzero"/></g></g></g></g><g clip-path="url(#cc3bf411f9)"><g clip-path="url(#01d8599cf6)"><g clip-path="url(#8949e67d2d)"><g clip-path="url(#90bb578a57)"><path fill="#00b8f1" d="M 335.210938 139.871094 C 335.699219 140.515625 336.621094 140.640625 337.265625 140.148438 C 337.914062 139.660156 338.046875 138.738281 337.558594 138.09375 C 337.070312 137.449219 336.148438 137.324219 335.5 137.816406 C 334.851562 138.304688 334.722656 139.226562 335.210938 139.871094 Z M 335.210938 139.871094 " fill-opacity="1" fill-rule="nonzero"/></g></g></g></g><g clip-path="url(#fd244e02e6)"><g clip-path="url(#092933c1e4)"><g clip-path="url(#7c42eb9198)"><g clip-path="url(#c243f63b7a)"><path fill="#00b8f1" d="M 314.941406 142.207031 C 315.429688 142.851562 316.351562 142.976562 317 142.484375 C 317.644531 141.996094 317.777344 141.074219 317.289062 140.429688 C 316.800781 139.785156 315.878906 139.660156 315.230469 140.152344 C 314.582031 140.640625 314.453125 141.5625 314.941406 142.207031 Z M 314.941406 142.207031 " fill-opacity="1" fill-rule="nonzero"/></g></g></g></g><g clip-path="url(#1f80bc74b7)"><g clip-path="url(#1da2bb4cc4)"><g clip-path="url(#0fb9d934a5)"><g clip-path="url(#1eb41f07d5)"><path fill="#00b8f1" d="M 275.398438 158.289062 C 275.242188 158.40625 275.070312 158.492188 274.882812 158.539062 C 274.695312 158.589844 274.503906 158.601562 274.3125 158.574219 C 274.117188 158.550781 273.9375 158.488281 273.769531 158.390625 C 273.601562 158.292969 273.460938 158.164062 273.34375 158.011719 C 273.226562 157.855469 273.144531 157.683594 273.09375 157.496094 C 273.046875 157.308594 273.035156 157.117188 273.0625 156.925781 C 273.089844 156.730469 273.152344 156.550781 273.25 156.382812 C 273.351562 156.214844 273.476562 156.074219 273.632812 155.957031 C 273.789062 155.835938 273.960938 155.753906 274.148438 155.703125 C 274.339844 155.65625 274.527344 155.644531 274.722656 155.667969 C 274.914062 155.695312 275.09375 155.757812 275.261719 155.855469 C 275.429688 155.953125 275.574219 156.078125 275.691406 156.234375 C 275.808594 156.386719 275.890625 156.558594 275.9375 156.746094 C 275.988281 156.9375 275.996094 157.125 275.972656 157.320312 C 275.945312 157.511719 275.878906 157.691406 275.78125 157.859375 C 275.683594 158.027344 275.554688 158.171875 275.398438 158.289062 Z M 275.398438 158.289062 " fill-opacity="1" fill-rule="nonzero"/></g></g></g></g><g clip-path="url(#964132b771)"><g clip-path="url(#270e9ff748)"><g clip-path="url(#da07ac5e9c)"><g clip-path="url(#1b05708324)"><path fill="#00b8f1" d="M 270.695312 172.417969 C 270.207031 171.773438 269.285156 171.648438 268.636719 172.136719 C 267.988281 172.628906 267.859375 173.546875 268.347656 174.191406 C 268.835938 174.835938 269.757812 174.960938 270.40625 174.472656 C 271.050781 173.980469 271.183594 173.0625 270.695312 172.417969 Z M 270.695312 172.417969 " fill-opacity="1" fill-rule="nonzero"/></g></g></g></g><g clip-path="url(#4232662433)"><g clip-path="url(#b16b73166b)"><g clip-path="url(#fdcbc2ee4b)"><g clip-path="url(#d3f5286329)"><path fill="#00b8f1" d="M 260.503906 187.085938 C 260.015625 186.441406 259.09375 186.316406 258.445312 186.808594 C 257.796875 187.296875 257.667969 188.21875 258.15625 188.863281 C 258.644531 189.507812 259.5625 189.632812 260.210938 189.140625 C 260.859375 188.648438 260.992188 187.730469 260.503906 187.085938 Z M 260.503906 187.085938 " fill-opacity="1" fill-rule="nonzero"/></g></g></g></g><g clip-path="url(#436d3f2403)"><g clip-path="url(#9301b90720)"><g clip-path="url(#858c750a10)"><g clip-path="url(#10cc60f51f)"><path fill="#00b8f1" d="M 333.898438 145.386719 C 334.386719 146.03125 335.308594 146.15625 335.957031 145.667969 C 336.601562 145.175781 336.734375 144.253906 336.246094 143.609375 C 335.757812 142.96875 334.835938 142.84375 334.1875 143.332031 C 333.539062 143.824219 333.410156 144.742188 333.898438 145.386719 Z M 333.898438 145.386719 " fill-opacity="1" fill-rule="nonzero"/></g></g></g></g><g clip-path="url(#ece9e5e743)"><g clip-path="url(#12ba03fb75)"><g clip-path="url(#cfc5bbc8e9)"><g clip-path="url(#ce6fd76b67)"><path fill="#00b8f1" d="M 314.308594 160.21875 C 313.660156 160.707031 313.527344 161.628906 314.015625 162.273438 C 314.503906 162.917969 315.425781 163.042969 316.074219 162.550781 C 316.722656 162.0625 316.851562 161.140625 316.363281 160.496094 C 315.875 159.851562 314.953125 159.726562 314.308594 160.21875 Z M 314.308594 160.21875 " fill-opacity="1" fill-rule="nonzero"/></g></g></g></g><g clip-path="url(#3f81bd8fb5)"><g clip-path="url(#d90e2a8053)"><g clip-path="url(#42175b0933)"><g clip-path="url(#373b3af20e)"><path fill="#00b8f1" d="M 337.886719 135.09375 C 338.128906 135.414062 338.589844 135.476562 338.914062 135.230469 C 339.238281 134.988281 339.300781 134.527344 339.058594 134.203125 C 338.816406 133.882812 338.355469 133.820312 338.03125 134.066406 C 337.707031 134.308594 337.640625 134.769531 337.886719 135.09375 Z M 337.886719 135.09375 " fill-opacity="1" fill-rule="nonzero"/></g></g></g></g><g clip-path="url(#f7167c46a6)"><g clip-path="url(#952e46010c)"><g clip-path="url(#1c100d5d55)"><g clip-path="url(#c8a5c72fba)"><path fill="#00b8f1" d="M 295.152344 187.78125 C 294.664062 187.136719 293.742188 187.011719 293.09375 187.503906 C 292.445312 187.992188 292.316406 188.914062 292.804688 189.558594 C 293.292969 190.203125 294.214844 190.328125 294.863281 189.835938 C 295.507812 189.347656 295.640625 188.425781 295.152344 187.78125 Z M 295.152344 187.78125 " fill-opacity="1" fill-rule="nonzero"/></g></g></g></g><g clip-path="url(#0b5aff95df)"><g clip-path="url(#bb42c1fb0f)"><g clip-path="url(#374a887657)"><g clip-path="url(#c9fe094eb8)"><path fill="#00b8f1" d="M 270.90625 182.820312 C 270.417969 182.175781 269.5 182.050781 268.851562 182.542969 C 268.203125 183.035156 268.074219 183.953125 268.558594 184.597656 C 269.046875 185.242188 269.96875 185.367188 270.617188 184.875 C 271.265625 184.386719 271.394531 183.464844 270.90625 182.820312 Z M 270.90625 182.820312 " fill-opacity="1" fill-rule="nonzero"/></g></g></g></g><g clip-path="url(#f90122a50f)"><g clip-path="url(#2c8cbf3753)"><g clip-path="url(#4c6f82b984)"><g clip-path="url(#6f9257c54f)"><path fill="#00b8f1" d="M 318.648438 148.738281 C 317.351562 149.71875 317.089844 151.558594 318.066406 152.847656 C 319.042969 154.136719 320.882812 154.386719 322.179688 153.40625 C 323.476562 152.421875 323.734375 150.582031 322.761719 149.292969 C 321.785156 148.007812 319.941406 147.757812 318.648438 148.738281 Z M 318.648438 148.738281 " fill-opacity="1" fill-rule="nonzero"/></g></g></g></g><g clip-path="url(#2851016a49)"><g clip-path="url(#0295e1729d)"><g clip-path="url(#de6cb087d9)"><g clip-path="url(#782578441a)"><path fill="#00b8f1" d="M 325.085938 141.808594 C 326.0625 143.097656 327.902344 143.347656 329.199219 142.367188 C 330.496094 141.386719 330.753906 139.546875 329.777344 138.257812 C 328.804688 136.96875 326.960938 136.71875 325.667969 137.699219 C 324.371094 138.679688 324.109375 140.523438 325.085938 141.808594 Z M 329.492188 139.324219 C 330.359375 140.472656 328.566406 141.828125 327.699219 140.679688 C 326.832031 139.53125 328.625 138.175781 329.492188 139.324219 Z M 329.492188 139.324219 " fill-opacity="1" fill-rule="nonzero"/></g></g></g></g><g clip-path="url(#29fbbf78bb)"><g clip-path="url(#c0538fd5b9)"><g clip-path="url(#cfa54b6b3f)"><g clip-path="url(#0adcade1b5)"><path fill="#00b8f1" d="M 329.132812 147.160156 C 327.839844 148.140625 327.578125 149.980469 328.554688 151.269531 C 329.53125 152.558594 331.371094 152.808594 332.667969 151.824219 C 333.964844 150.84375 334.222656 149.003906 333.246094 147.714844 C 332.273438 146.425781 330.429688 146.175781 329.132812 147.160156 Z M 332.015625 148.496094 C 332.15625 148.449219 332.296875 148.4375 332.445312 148.464844 C 332.59375 148.476562 332.726562 148.527344 332.847656 148.609375 C 332.984375 148.671875 333.09375 148.769531 333.183594 148.894531 C 333.207031 148.929688 333.234375 148.980469 333.253906 149.015625 C 333.25 149.003906 333.328125 149.136719 333.339844 149.175781 C 333.34375 149.179688 333.34375 149.183594 333.347656 149.1875 C 333.371094 149.28125 333.394531 149.375 333.417969 149.46875 L 333.417969 149.488281 C 333.417969 149.492188 333.417969 149.492188 333.417969 149.496094 C 333.417969 149.589844 333.417969 149.6875 333.414062 149.78125 C 333.414062 149.792969 333.414062 149.800781 333.410156 149.8125 C 333.40625 149.839844 333.367188 150.023438 333.324219 150.113281 C 333.304688 150.160156 333.253906 150.238281 333.246094 150.25 C 333.226562 150.285156 333.195312 150.34375 333.164062 150.386719 C 333.160156 150.394531 333.15625 150.398438 333.152344 150.402344 C 333.089844 150.476562 333 150.558594 332.929688 150.625 C 332.917969 150.636719 332.90625 150.648438 332.894531 150.65625 C 332.734375 150.777344 332.550781 150.851562 332.351562 150.875 C 332.253906 150.875 332.160156 150.875 332.0625 150.875 C 331.867188 150.847656 331.691406 150.773438 331.535156 150.65625 C 331.464844 150.585938 331.394531 150.515625 331.324219 150.445312 C 331.226562 150.324219 331.167969 150.191406 331.140625 150.042969 C 331.09375 149.902344 331.082031 149.761719 331.109375 149.613281 C 331.121094 149.503906 331.160156 149.402344 331.210938 149.308594 C 331.246094 149.160156 331.304688 149.019531 331.398438 148.894531 C 331.472656 148.824219 331.542969 148.753906 331.613281 148.683594 C 331.734375 148.582031 331.867188 148.523438 332.015625 148.496094 Z M 332.015625 148.496094 " fill-opacity="1" fill-rule="nonzero"/></g></g></g></g><g clip-path="url(#126cc31ad2)"><g clip-path="url(#c58d09482f)"><g clip-path="url(#067e47572e)"><g clip-path="url(#3c4f4d7c20)"><path fill="#00b8f1" d="M 291.929688 166.964844 C 293.226562 165.984375 293.488281 164.144531 292.511719 162.855469 C 291.535156 161.566406 289.695312 161.316406 288.398438 162.296875 C 287.101562 163.28125 286.84375 165.121094 287.820312 166.410156 C 288.792969 167.699219 290.636719 167.945312 291.929688 166.964844 Z M 291.929688 166.964844 " fill-opacity="1" fill-rule="nonzero"/></g></g></g></g><g clip-path="url(#2688984d0d)"><g clip-path="url(#e53b4d5663)"><g clip-path="url(#ee06763e5e)"><g clip-path="url(#3bc1671895)"><path fill="#00b8f1" d="M 93.535156 171.335938 C 90.640625 175.800781 91.929688 181.777344 96.417969 184.691406 C 100.90625 187.605469 106.894531 186.347656 109.789062 181.882812 C 112.6875 177.421875 111.394531 171.441406 106.90625 168.527344 C 102.417969 165.617188 96.433594 166.871094 93.535156 171.335938 Z M 104.820312 171.042969 C 105.84375 172.070312 104.164062 173.546875 103.148438 172.523438 C 101.433594 170.800781 98.957031 171.363281 97.574219 173.175781 C 96.707031 174.316406 94.820312 173.097656 95.691406 171.953125 C 97.976562 168.949219 102.027344 168.234375 104.820312 171.042969 Z M 104.820312 171.042969 " fill-opacity="1" fill-rule="nonzero"/></g></g></g></g><g clip-path="url(#30a691f803)"><g clip-path="url(#87f872e75f)"><g clip-path="url(#7c64a33065)"><g clip-path="url(#f2a921bb94)"><path fill="#00b8f1" d="M 72.984375 172.039062 C 75.878906 167.574219 74.589844 161.597656 70.101562 158.683594 C 65.613281 155.769531 59.625 157.027344 56.730469 161.492188 C 53.832031 165.957031 55.125 171.933594 59.613281 174.847656 C 64.101562 177.761719 70.085938 176.503906 72.984375 172.039062 Z M 58.441406 162.46875 C 61.023438 159.296875 65.199219 158.085938 68.714844 160.636719 C 69.878906 161.484375 68.667969 163.363281 67.496094 162.511719 C 65.042969 160.730469 62.175781 161.417969 60.324219 163.691406 C 59.425781 164.796875 57.535156 163.582031 58.441406 162.46875 Z M 58.441406 162.46875 " fill-opacity="1" fill-rule="nonzero"/></g></g></g></g><g clip-path="url(#fb36011bc7)"><g clip-path="url(#5832ac9f1d)"><g clip-path="url(#ebc5128c21)"><g clip-path="url(#8151291b2a)"><path fill="#00b8f1" d="M 77.734375 146.917969 C 74.160156 152.421875 75.753906 159.796875 81.289062 163.386719 C 86.820312 166.976562 94.203125 165.429688 97.777344 159.925781 C 101.347656 154.421875 99.757812 147.046875 94.222656 143.457031 C 88.6875 139.863281 81.304688 141.414062 77.734375 146.917969 Z M 96.714844 149.617188 C 97.335938 150.917969 95.335938 151.925781 94.710938 150.617188 C 92.421875 145.824219 86.066406 144.394531 82.609375 148.777344 C 81.726562 149.902344 79.835938 148.683594 80.726562 147.554688 C 85.183594 141.898438 93.632812 143.164062 96.714844 149.617188 Z M 96.714844 149.617188 " fill-opacity="1" fill-rule="nonzero"/></g></g></g></g><g clip-path="url(#8d874fe8a0)"><g clip-path="url(#6ad449f91b)"><g clip-path="url(#dc9c93bfff)"><g clip-path="url(#e239469b6c)"><path fill="#00b8f1" d="M 74.433594 185.285156 C 74.761719 185.5 75.035156 185.765625 75.257812 186.085938 C 75.480469 186.40625 75.632812 186.757812 75.714844 187.140625 C 75.796875 187.519531 75.800781 187.902344 75.730469 188.28125 C 75.664062 188.664062 75.523438 189.019531 75.308594 189.34375 C 75.097656 189.671875 74.832031 189.941406 74.511719 190.164062 C 74.191406 190.382812 73.839844 190.53125 73.460938 190.613281 C 73.078125 190.691406 72.699219 190.695312 72.3125 190.625 C 71.929688 190.550781 71.574219 190.410156 71.25 190.199219 C 70.921875 189.984375 70.644531 189.71875 70.425781 189.398438 C 70.203125 189.078125 70.050781 188.726562 69.96875 188.34375 C 69.886719 187.964844 69.878906 187.582031 69.949219 187.203125 C 70.019531 186.820312 70.160156 186.464844 70.371094 186.140625 C 70.582031 185.816406 70.851562 185.542969 71.171875 185.324219 C 71.492188 185.101562 71.839844 184.953125 72.222656 184.875 C 72.601562 184.792969 72.984375 184.789062 73.367188 184.859375 C 73.753906 184.933594 74.109375 185.074219 74.433594 185.285156 Z M 74.433594 185.285156 " fill-opacity="1" fill-rule="nonzero"/></g></g></g></g><g clip-path="url(#0554ad47fe)"><g clip-path="url(#2efe71cbcd)"><g clip-path="url(#1728db3479)"><g clip-path="url(#de991dc292)"><path fill="#00b8f1" d="M 82.09375 183.695312 C 80.644531 185.925781 81.292969 188.917969 83.535156 190.371094 C 85.78125 191.828125 88.773438 191.199219 90.222656 188.96875 C 91.667969 186.738281 91.023438 183.746094 88.78125 182.289062 C 86.535156 180.835938 83.542969 181.464844 82.09375 183.695312 Z M 89.375 184.300781 C 89.738281 184.789062 89.769531 185.453125 89.285156 185.882812 C 88.859375 186.257812 88.0625 186.269531 87.699219 185.785156 C 87.316406 185.269531 86.960938 185.054688 86.296875 185.097656 C 85.6875 185.132812 85.199219 184.476562 85.222656 183.921875 C 85.253906 183.273438 85.789062 182.898438 86.394531 182.859375 C 87.5625 182.789062 88.679688 183.371094 89.375 184.300781 Z M 89.375 184.300781 " fill-opacity="1" fill-rule="nonzero"/></g></g></g></g><g clip-path="url(#d53804544f)"><g clip-path="url(#f7a978f67a)"><g clip-path="url(#96a19d4c9c)"><g clip-path="url(#1b6af0f013)"><path fill="#00b8f1" d="M 42.632812 140.859375 C 43.074219 140.179688 42.878906 139.273438 42.195312 138.828125 C 41.515625 138.386719 40.605469 138.578125 40.164062 139.257812 C 39.726562 139.933594 39.921875 140.84375 40.601562 141.285156 C 41.285156 141.726562 42.195312 141.535156 42.632812 140.859375 Z M 42.632812 140.859375 " fill-opacity="1" fill-rule="nonzero"/></g></g></g></g><g clip-path="url(#1c91794fc7)"><g clip-path="url(#3023fee4b5)"><g clip-path="url(#346e44bc2d)"><g clip-path="url(#5a96248bf8)"><path fill="#00b8f1" d="M 51.726562 159.121094 C 52.167969 158.445312 51.972656 157.535156 51.289062 157.09375 C 50.609375 156.652344 49.699219 156.84375 49.257812 157.519531 C 48.820312 158.199219 49.015625 159.105469 49.695312 159.550781 C 50.378906 159.992188 51.289062 159.800781 51.726562 159.121094 Z M 51.726562 159.121094 " fill-opacity="1" fill-rule="nonzero"/></g></g></g></g><g clip-path="url(#17ed22b620)"><g clip-path="url(#77e5283853)"><g clip-path="url(#1a97dd0c6d)"><g clip-path="url(#ab0f825dcc)"><path fill="#00b8f1" d="M 80.304688 190.832031 C 80.46875 190.9375 80.605469 191.070312 80.71875 191.234375 C 80.828125 191.394531 80.90625 191.570312 80.945312 191.757812 C 80.988281 191.949219 80.988281 192.140625 80.957031 192.332031 C 80.921875 192.523438 80.851562 192.699219 80.746094 192.863281 C 80.636719 193.023438 80.503906 193.160156 80.34375 193.269531 C 80.183594 193.378906 80.007812 193.453125 79.820312 193.496094 C 79.628906 193.535156 79.4375 193.535156 79.246094 193.5 C 79.054688 193.464844 78.875 193.394531 78.714844 193.289062 C 78.550781 193.183594 78.410156 193.046875 78.300781 192.886719 C 78.191406 192.726562 78.113281 192.550781 78.074219 192.363281 C 78.03125 192.171875 78.03125 191.980469 78.0625 191.789062 C 78.097656 191.597656 78.167969 191.421875 78.273438 191.257812 C 78.382812 191.097656 78.515625 190.960938 78.675781 190.851562 C 78.835938 190.742188 79.007812 190.664062 79.199219 190.625 C 79.390625 190.585938 79.582031 190.582031 79.773438 190.621094 C 79.964844 190.65625 80.144531 190.726562 80.304688 190.832031 Z M 80.304688 190.832031 " fill-opacity="1" fill-rule="nonzero"/></g></g></g></g><g clip-path="url(#b5a9624912)"><g clip-path="url(#53678d23f6)"><g clip-path="url(#54f27fc309)"><g clip-path="url(#2ec5a0ef9c)"><path fill="#00b8f1" d="M 95.191406 190.449219 C 94.75 191.128906 94.949219 192.035156 95.628906 192.476562 C 96.3125 192.921875 97.222656 192.730469 97.660156 192.050781 C 98.101562 191.375 97.90625 190.464844 97.222656 190.023438 C 96.542969 189.582031 95.632812 189.773438 95.191406 190.449219 Z M 95.191406 190.449219 " fill-opacity="1" fill-rule="nonzero"/></g></g></g></g><g clip-path="url(#09a65c321d)"><g clip-path="url(#0f04573c7b)"><g clip-path="url(#4d0fd2a15c)"><g clip-path="url(#fbf41a5992)"><path fill="#00b8f1" d="M 112.453125 195.042969 C 112.015625 195.71875 112.210938 196.628906 112.890625 197.070312 C 113.574219 197.511719 114.484375 197.320312 114.921875 196.644531 C 115.363281 195.964844 115.167969 195.058594 114.484375 194.613281 C 113.804688 194.171875 112.894531 194.363281 112.453125 195.042969 Z M 112.453125 195.042969 " fill-opacity="1" fill-rule="nonzero"/></g></g></g></g><g clip-path="url(#d167968b9f)"><g clip-path="url(#83fc6b7d10)"><g clip-path="url(#7335480d80)"><g clip-path="url(#b8670f145d)"><path fill="#00b8f1" d="M 48.269531 140.214844 C 48.707031 139.535156 48.511719 138.628906 47.832031 138.1875 C 47.148438 137.742188 46.238281 137.933594 45.800781 138.613281 C 45.359375 139.289062 45.554688 140.199219 46.238281 140.640625 C 46.917969 141.082031 47.828125 140.894531 48.269531 140.214844 Z M 48.269531 140.214844 " fill-opacity="1" fill-rule="nonzero"/></g></g></g></g><g clip-path="url(#f583f9608b)"><g clip-path="url(#4024eddc58)"><g clip-path="url(#161031d8b4)"><g clip-path="url(#7b07afba04)"><path fill="#00b8f1" d="M 68.878906 153.589844 C 69.5625 154.035156 70.472656 153.84375 70.910156 153.164062 C 71.351562 152.488281 71.15625 151.578125 70.472656 151.136719 C 69.792969 150.695312 68.882812 150.882812 68.441406 151.5625 C 68.003906 152.242188 68.199219 153.148438 68.878906 153.589844 Z M 68.878906 153.589844 " fill-opacity="1" fill-rule="nonzero"/></g></g></g></g><g clip-path="url(#1d7d126d47)"><g clip-path="url(#6fd2572ae3)"><g clip-path="url(#91d45da335)"><g clip-path="url(#446d9071ee)"><path fill="#00b8f1" d="M 37.230469 139.96875 C 37.453125 139.628906 37.355469 139.175781 37.011719 138.957031 C 36.671875 138.734375 36.21875 138.828125 35.996094 139.167969 C 35.777344 139.507812 35.875 139.960938 36.214844 140.183594 C 36.558594 140.402344 37.011719 140.308594 37.230469 139.96875 Z M 37.230469 139.96875 " fill-opacity="1" fill-rule="nonzero"/></g></g></g></g><g clip-path="url(#1d6329ffa8)"><g clip-path="url(#1628078ab0)"><g clip-path="url(#fc9a1ed5c2)"><g clip-path="url(#28552c29d9)"><path fill="#00b8f1" d="M 101.316406 162.222656 C 100.878906 162.902344 101.074219 163.808594 101.753906 164.253906 C 102.4375 164.695312 103.347656 164.503906 103.785156 163.824219 C 104.226562 163.148438 104.03125 162.238281 103.347656 161.796875 C 102.667969 161.355469 101.757812 161.546875 101.316406 162.222656 Z M 101.316406 162.222656 " fill-opacity="1" fill-rule="nonzero"/></g></g></g></g><g clip-path="url(#5950999f0f)"><g clip-path="url(#edfe0ccbbb)"><g clip-path="url(#f59cf3c8e7)"><g clip-path="url(#4febdae83f)"><path fill="#00b8f1" d="M 104.902344 186.710938 C 104.464844 187.386719 104.660156 188.296875 105.34375 188.738281 C 106.023438 189.179688 106.933594 188.988281 107.371094 188.3125 C 107.8125 187.632812 107.617188 186.726562 106.933594 186.28125 C 106.253906 185.839844 105.34375 186.03125 104.902344 186.710938 Z M 104.902344 186.710938 " fill-opacity="1" fill-rule="nonzero"/></g></g></g></g><g clip-path="url(#df3c6e6829)"><g clip-path="url(#1509997a7b)"><g clip-path="url(#1ecc31e5db)"><g clip-path="url(#22b4605df9)"><path fill="#00b8f1" d="M 56.609375 153.417969 C 57.972656 154.300781 59.789062 153.917969 60.671875 152.5625 C 61.550781 151.207031 61.160156 149.390625 59.796875 148.507812 C 58.433594 147.621094 56.613281 148.003906 55.734375 149.359375 C 54.851562 150.714844 55.246094 152.53125 56.609375 153.417969 Z M 56.609375 153.417969 " fill-opacity="1" fill-rule="nonzero"/></g></g></g></g><g clip-path="url(#aa2b432fc7)"><g clip-path="url(#eb492e23a3)"><g clip-path="url(#542c03b484)"><g clip-path="url(#ececbf9f8c)"><path fill="#00b8f1" d="M 47.902344 149.71875 C 48.785156 148.363281 48.390625 146.546875 47.027344 145.660156 C 45.664062 144.777344 43.847656 145.160156 42.964844 146.515625 C 42.085938 147.871094 42.476562 149.6875 43.839844 150.570312 C 45.207031 151.457031 47.023438 151.074219 47.902344 149.71875 Z M 44.066406 146.421875 C 44.851562 145.214844 46.734375 146.441406 45.953125 147.644531 C 45.167969 148.855469 43.285156 147.628906 44.066406 146.421875 Z M 44.066406 146.421875 " fill-opacity="1" fill-rule="nonzero"/></g></g></g></g><g clip-path="url(#08c59f8e49)"><g clip-path="url(#fedc3deaa2)"><g clip-path="url(#9918376ec8)"><g clip-path="url(#ce326f01c5)"><path fill="#00b8f1" d="M 51.554688 144.09375 C 52.917969 144.976562 54.738281 144.59375 55.617188 143.238281 C 56.496094 141.882812 56.105469 140.066406 54.742188 139.183594 C 53.378906 138.296875 51.558594 138.679688 50.679688 140.035156 C 49.800781 141.390625 50.191406 143.207031 51.554688 144.09375 Z M 51.832031 140.925781 C 51.742188 140.8125 51.683594 140.683594 51.65625 140.535156 C 51.617188 140.390625 51.617188 140.25 51.65625 140.105469 C 51.671875 139.957031 51.722656 139.820312 51.808594 139.695312 C 51.832031 139.660156 51.875 139.617188 51.898438 139.589844 C 51.890625 139.59375 51.988281 139.472656 52.019531 139.449219 C 52.023438 139.445312 52.027344 139.445312 52.03125 139.441406 C 52.109375 139.386719 52.191406 139.332031 52.269531 139.277344 L 52.277344 139.273438 L 52.289062 139.269531 C 52.289062 139.269531 52.292969 139.269531 52.296875 139.265625 C 52.386719 139.234375 52.476562 139.203125 52.566406 139.171875 C 52.574219 139.171875 52.585938 139.167969 52.59375 139.167969 C 52.621094 139.164062 52.808594 139.136719 52.90625 139.144531 C 52.957031 139.152344 53.050781 139.171875 53.0625 139.175781 C 53.101562 139.179688 53.167969 139.1875 53.21875 139.203125 C 53.226562 139.203125 53.230469 139.207031 53.238281 139.210938 C 53.332031 139.242188 53.4375 139.300781 53.523438 139.34375 C 53.539062 139.351562 53.550781 139.359375 53.566406 139.367188 C 53.734375 139.476562 53.867188 139.621094 53.957031 139.800781 C 53.988281 139.894531 54.019531 139.984375 54.054688 140.074219 C 54.09375 140.265625 54.085938 140.457031 54.027344 140.644531 C 53.984375 140.734375 53.941406 140.824219 53.898438 140.914062 C 53.820312 141.046875 53.714844 141.148438 53.582031 141.222656 C 53.46875 141.316406 53.339844 141.375 53.191406 141.398438 C 53.082031 141.425781 52.976562 141.425781 52.867188 141.410156 C 52.714844 141.425781 52.566406 141.417969 52.417969 141.371094 C 52.324219 141.328125 52.234375 141.285156 52.144531 141.242188 C 52.011719 141.164062 51.90625 141.058594 51.832031 140.925781 Z M 51.832031 140.925781 " fill-opacity="1" fill-rule="nonzero"/></g></g></g></g><g clip-path="url(#fe6634e1be)"><g clip-path="url(#453d56e833)"><g clip-path="url(#8c8019adfe)"><g clip-path="url(#dfaff08fab)"><path fill="#00b8f1" d="M 82.839844 172.335938 C 81.476562 171.449219 79.65625 171.832031 78.777344 173.1875 C 77.898438 174.542969 78.289062 176.359375 79.652344 177.246094 C 81.015625 178.128906 82.835938 177.746094 83.714844 176.390625 C 84.597656 175.035156 84.203125 173.21875 82.839844 172.335938 Z M 82.839844 172.335938 " fill-opacity="1" fill-rule="nonzero"/></g></g></g></g></svg>